<svg width="37" height="37" viewBox="0 0 37 37" fill="none" xmlns="http://www.w3.org/2000/svg">
<path d="M12.1655 13.4931C13.3835 16.03 15.0439 18.4076 17.1466 20.5103C19.2494 22.6131 21.627 24.2735 24.1638 25.4915C24.382 25.5962 24.4912 25.6486 24.6292 25.6889C25.1198 25.8319 25.7223 25.7292 26.1378 25.4316C26.2547 25.3479 26.3547 25.2479 26.5548 25.0479C27.1666 24.436 27.4725 24.1301 27.7801 23.9301C28.9402 23.1759 30.4357 23.1759 31.5957 23.9301C31.9033 24.1301 32.2093 24.436 32.8211 25.0479L33.1621 25.3889C34.0921 26.3189 34.5571 26.7839 34.8097 27.2833C35.3121 28.2766 35.3121 29.4495 34.8097 30.4428C34.5571 30.9422 34.0921 31.4072 33.1621 32.3372L32.8862 32.6131C31.9594 33.5399 31.496 34.0033 30.8659 34.3573C30.1668 34.75 29.0809 35.0324 28.279 35.03C27.5564 35.0278 27.0625 34.8877 26.0747 34.6073C20.7663 33.1006 15.7571 30.2578 11.5782 26.0788C7.39919 21.8998 4.55636 16.8907 3.04966 11.5823C2.7693 10.5945 2.62912 10.1006 2.62697 9.37794C2.62458 8.57605 2.90697 7.49019 3.2997 6.79105C3.65363 6.161 4.11705 5.69758 5.0439 4.77074L5.31976 4.49488C6.24978 3.56485 6.71479 3.09984 7.21421 2.84724C8.20744 2.34487 9.38041 2.34487 10.3736 2.84724C10.8731 3.09984 11.3381 3.56485 12.2681 4.49488L12.6091 4.8359C13.2209 5.44771 13.5268 5.75362 13.7268 6.06123C14.4811 7.22128 14.4811 8.7168 13.7268 9.87686C13.5268 10.1845 13.2209 10.4904 12.6091 11.1022C12.4091 11.3022 12.309 11.4023 12.2253 11.5192C11.9278 11.9347 11.8251 12.5371 11.9681 13.0278C12.0083 13.1658 12.0607 13.2749 12.1655 13.4931Z" fill="#E5F4FF" stroke="#001E33" stroke-width="3.5" stroke-linecap="round" stroke-linejoin="round"/>
</svg>
