<svg width="39" height="40" viewBox="0 0 39 40" fill="none" xmlns="http://www.w3.org/2000/svg">
<path d="M21.25 27.875C21.25 33.1907 17.0438 37.5 11.8553 37.5C10.7834 37.5 9.75354 37.3161 8.79397 36.9775C8.42978 36.8489 8.24768 36.7846 8.12519 36.7602C7.99621 36.7345 7.92641 36.7274 7.7949 36.7265C7.67 36.7256 7.52697 36.7452 7.2409 36.7843L2 37.5L3.06985 32.667C3.13997 32.3503 3.17503 32.1919 3.18314 32.0518C3.1916 31.9055 3.18762 31.8242 3.1649 31.6794C3.14314 31.5407 3.07683 31.3377 2.94421 30.9318C2.63048 29.9714 2.46053 28.9435 2.46053 27.875C2.46053 22.5593 6.66669 18.25 11.8553 18.25C17.0438 18.25 21.25 22.5593 21.25 27.875Z" fill="#E5F4FF"/>
<path d="M9.16514 18.6504C9.05637 17.9494 8.99993 17.2312 8.99993 16.5C8.99993 8.76801 15.3092 2.5 23.092 2.5C30.8749 2.5 37.1841 8.76801 37.1841 16.5C37.1841 18.2466 36.8622 19.9185 36.274 21.4604C36.1519 21.7806 36.0908 21.9407 36.0631 22.0657C36.0356 22.1896 36.025 22.2767 36.022 22.4035C36.019 22.5316 36.0363 22.6726 36.071 22.9546L36.7756 28.6774C36.8518 29.2969 36.89 29.6067 36.7869 29.8319C36.6966 30.0292 36.5362 30.1859 36.3369 30.2716C36.1094 30.3695 35.8006 30.3242 35.183 30.2337L29.6088 29.4166C29.3178 29.3739 29.1722 29.3526 29.0397 29.3534C28.9086 29.3541 28.8178 29.3638 28.6895 29.3908C28.5598 29.418 28.3941 29.4801 28.0627 29.6042C26.5169 30.1832 24.8417 30.5 23.092 30.5C22.3602 30.5 21.6414 30.4446 20.9397 30.3377M11.8553 37.5C17.0438 37.5 21.25 33.1907 21.25 27.875C21.25 22.5593 17.0438 18.25 11.8553 18.25C6.66669 18.25 2.46053 22.5593 2.46053 27.875C2.46053 28.9435 2.63048 29.9714 2.94421 30.9318C3.07683 31.3377 3.14314 31.5407 3.1649 31.6794C3.18762 31.8242 3.1916 31.9055 3.18314 32.0518C3.17503 32.1919 3.13997 32.3503 3.06985 32.667L2 37.5L7.2409 36.7843C7.52697 36.7452 7.67 36.7256 7.7949 36.7265C7.92641 36.7274 7.99621 36.7345 8.12519 36.7602C8.24768 36.7846 8.42978 36.8489 8.79397 36.9775C9.75354 37.3161 10.7834 37.5 11.8553 37.5Z" stroke="#001E33" stroke-width="3.5" stroke-linecap="round" stroke-linejoin="round"/>
</svg>
