<svg width="22" height="22" viewBox="0 0 22 22" fill="none" xmlns="http://www.w3.org/2000/svg">
<path d="M5.2002 0.000976562C5.34871 -0.0155789 5.48239 0.0917075 5.49902 0.240234L6.64453 10.4707C6.66116 10.6192 6.55471 10.7528 6.40625 10.7695L1.44629 11.3252C1.29776 11.3418 1.1641 11.2345 1.14746 11.0859L0.00195312 0.855469C-0.0144514 0.707107 0.09188 0.573351 0.240234 0.556641L5.2002 0.000976562ZM12.4619 3.92383C12.6103 3.90745 12.7441 4.01471 12.7607 4.16309L13.3828 9.71582C13.3995 9.86439 13.2921 9.99899 13.1436 10.0156L8.18359 10.5713C8.03522 10.5877 7.90142 10.4804 7.88477 10.332L7.2627 4.7793C7.24606 4.63072 7.35338 4.49613 7.50195 4.47949L12.4619 3.92383ZM19.0693 1.26562C19.2178 1.24899 19.3524 1.35543 19.3691 1.50391L20.1973 8.90625C20.2139 9.05477 20.1075 9.18933 19.959 9.20605L14.999 9.76074C14.8505 9.77736 14.7169 9.67095 14.7002 9.52246L13.8711 2.12012C13.8545 1.97168 13.961 1.83716 14.1094 1.82031L19.0693 1.26562Z" fill="url(#paint0_linear_950_24758)"/>
<path d="M20.1221 10.6738C20.2705 10.6573 20.4043 10.7646 20.4209 10.9131L21.5674 21.1436C21.5839 21.292 21.4765 21.4256 21.3281 21.4424L16.3682 21.998C16.2197 22.0145 16.086 21.9072 16.0693 21.7588L14.9238 11.5283C14.9074 11.38 15.0139 11.2463 15.1621 11.2295L20.1221 10.6738ZM6.56934 12.2373C6.71781 12.2208 6.85251 12.3281 6.86914 12.4766L7.69824 19.8789C7.71478 20.0273 7.60731 20.1609 7.45898 20.1777L2.49902 20.7334C2.35055 20.7499 2.21687 20.6426 2.2002 20.4941L1.37109 13.0918C1.35464 12.9433 1.46188 12.8096 1.61035 12.793L6.56934 12.2373ZM13.3203 11.4717C13.4688 11.4552 13.6025 11.5625 13.6191 11.7109L14.2412 17.2637C14.2578 17.412 14.1512 17.5466 14.0029 17.5635L9.05273 18.1172C8.90448 18.1336 8.77077 18.0271 8.75391 17.8789L8.13184 12.3252C8.11534 12.1767 8.2226 12.043 8.37109 12.0264L13.3203 11.4717Z" fill="url(#paint1_linear_950_24758)"/>
<defs>
<linearGradient id="paint0_linear_950_24758" x1="0" y1="5.66331" x2="20.1997" y2="5.66331" gradientUnits="userSpaceOnUse">
<stop stop-color="#0096FF"/>
<stop offset="1" stop-color="#005A99"/>
</linearGradient>
<linearGradient id="paint1_linear_950_24758" x1="10.4338" y1="20.7778" x2="8.60041" y2="4.68534" gradientUnits="userSpaceOnUse">
<stop stop-color="#0096FF" stop-opacity="0"/>
<stop offset="1" stop-color="#005A99" stop-opacity="0.7"/>
</linearGradient>
</defs>
</svg>
