<svg width="24" height="25" viewBox="0 0 24 25" fill="none" xmlns="http://www.w3.org/2000/svg">
<g clip-path="url(#clip0_908_72622)">
<mask id="mask0_908_72622" style="mask-type:luminance" maskUnits="userSpaceOnUse" x="0" y="1" width="24" height="25">
<path d="M24 25.1484V1.14844L0 1.14844V25.1484H24Z" fill="white"/>
</mask>
<g mask="url(#mask0_908_72622)">
<path d="M12.0016 2.75C17.7454 2.75 22.4015 7.40624 22.4015 13.15C22.4015 18.8937 17.7454 23.55 12.0016 23.55C6.2578 23.55 1.60156 18.8937 1.60156 13.15C1.60156 7.40624 6.2578 2.75 12.0016 2.75Z" fill="#00A210"/>
<path fill-rule="evenodd" clip-rule="evenodd" d="M12.0008 1.94922C18.1863 1.94922 23.2008 6.96363 23.2008 13.1492C23.2008 19.3349 18.1863 24.3492 12.0008 24.3492C5.81519 24.3492 0.800781 19.3349 0.800781 13.1492C0.800781 6.96363 5.81519 1.94922 12.0008 1.94922ZM21.6008 13.1492C21.6008 7.84729 17.3027 3.54922 12.0008 3.54922C6.69884 3.54922 2.40079 7.84729 2.40079 13.1492C2.40079 18.4512 6.69884 22.7492 12.0008 22.7492C17.3027 22.7492 21.6008 18.4512 21.6008 13.1492Z" fill="#00A210"/>
<path fill-rule="evenodd" clip-rule="evenodd" d="M6.81996 12.8524C7.12332 13.1737 7.62964 13.1881 7.95087 12.8848L11.0016 10.0036V18.1477C11.0016 18.5895 11.3597 18.9476 11.8016 18.9476C12.2434 18.9476 12.6016 18.5895 12.6016 18.1477V10.0036L15.6523 12.8848C15.9734 13.1881 16.4798 13.1737 16.7831 12.8524C17.0866 12.5312 17.072 12.0249 16.7509 11.7215L12.3509 7.56604C12.0425 7.27486 11.5606 7.27486 11.2523 7.56604L6.85227 11.7215C6.53106 12.0249 6.51658 12.5312 6.81996 12.8524Z" fill="white"/>
</g>
</g>
<defs>
<clipPath id="clip0_908_72622">
<rect width="24" height="25" fill="white"/>
</clipPath>
</defs>
</svg>
