<svg width="20" height="20" viewBox="0 0 20 20" fill="none" xmlns="http://www.w3.org/2000/svg">
<g clip-path="url(#clip0_1172_15899)">
<path d="M7.49935 9.99935L9.16602 11.666L12.916 7.91602M14.917 4.16477C15.0886 4.57979 15.418 4.90968 15.8327 5.08191L17.287 5.68433C17.7021 5.85625 18.0318 6.18601 18.2037 6.60106C18.3757 7.01612 18.3757 7.48247 18.2037 7.89752L17.6018 9.35085C17.4298 9.76609 17.4295 10.2329 17.6023 10.6479L18.2032 12.1008C18.2885 12.3064 18.3324 12.5268 18.3324 12.7493C18.3324 12.9718 18.2886 13.1922 18.2035 13.3978C18.1183 13.6034 17.9935 13.7902 17.8361 13.9475C17.6787 14.1049 17.4919 14.2297 17.2863 14.3147L15.833 14.9167C15.418 15.0883 15.0881 15.4177 14.9159 15.8325L14.3135 17.2869C14.1416 17.7019 13.8118 18.0317 13.3968 18.2036C12.9817 18.3755 12.5154 18.3755 12.1004 18.2036L10.6471 17.6016C10.232 17.4301 9.76587 17.4305 9.35108 17.6026L7.89676 18.2041C7.48195 18.3757 7.01602 18.3755 6.60132 18.2037C6.18662 18.032 5.85706 17.7026 5.68503 17.288L5.08245 15.8332C4.91085 15.4182 4.58147 15.0883 4.16672 14.916L2.7124 14.3136C2.29754 14.1418 1.9679 13.8122 1.79592 13.3974C1.62394 12.9826 1.62371 12.5165 1.79527 12.1015L2.39724 10.6481C2.56873 10.2331 2.56838 9.76689 2.39626 9.35208L1.79516 7.89667C1.70993 7.6911 1.66605 7.47075 1.66602 7.24821C1.66598 7.02567 1.70979 6.80531 1.79495 6.59971C1.88011 6.39411 2.00494 6.20731 2.16232 6.04998C2.3197 5.89264 2.50654 5.76786 2.71215 5.68277L4.16543 5.08078C4.58007 4.90932 4.90975 4.58035 5.0821 4.16606L5.6845 2.71169C5.85641 2.29664 6.18616 1.96688 6.6012 1.79496C7.01624 1.62304 7.48257 1.62304 7.89761 1.79496L9.35089 2.39695C9.76594 2.56844 10.2321 2.56809 10.6469 2.39597L12.1018 1.79589C12.5168 1.62407 12.983 1.6241 13.398 1.79599C13.813 1.96787 14.1427 2.29754 14.3146 2.71249L14.9172 4.16729L14.917 4.16477Z" stroke="url(#paint0_linear_1172_15899)" stroke-width="1.66667" stroke-linecap="round" stroke-linejoin="round"/>
</g>
<defs>
<linearGradient id="paint0_linear_1172_15899" x1="1.66602" y1="9.99935" x2="18.3327" y2="9.99935" gradientUnits="userSpaceOnUse">
<stop stop-color="#00FFAF"/>
<stop offset="1" stop-color="#00923B"/>
</linearGradient>
<clipPath id="clip0_1172_15899">
<rect width="20" height="20" fill="white"/>
</clipPath>
</defs>
</svg>
