<svg width="42" height="42" viewBox="0 0 42 42" fill="none" xmlns="http://www.w3.org/2000/svg">
<rect width="42" height="42" rx="21" fill="white" fill-opacity="0.1"/>
<path d="M15.959 18.3125H11.834V29.7709H15.959V18.3125Z" fill="white"/>
<path d="M15.959 13.5C15.959 14.6391 15.0356 15.5625 13.8965 15.5625C12.7574 15.5625 11.834 14.6391 11.834 13.5C11.834 12.3609 12.7574 11.4375 13.8965 11.4375C15.0356 11.4375 15.959 12.3609 15.959 13.5Z" fill="white"/>
<path d="M22.834 18.3125H18.709V29.7709H22.834V24.0419C22.834 23.1559 23.5522 22.4377 24.4382 22.4377C25.3241 22.4377 26.0423 23.1559 26.0423 24.0419V29.7709H30.1662L30.1674 22.4377C30.1674 20.1596 28.0007 18.3127 25.856 18.3127C24.6352 18.3127 23.5459 18.9112 22.834 19.847V18.3125Z" fill="white"/>
</svg>
