<svg width="22" height="17" viewBox="0 0 22 17" fill="none" xmlns="http://www.w3.org/2000/svg">
<path d="M1.83398 4.04297L9.31849 9.28212C9.92457 9.70638 10.2276 9.9185 10.5572 10.0007C10.8484 10.0732 11.1529 10.0732 11.4441 10.0007C11.7737 9.9185 12.0767 9.70638 12.6828 9.28213L20.1673 4.04297M6.23398 15.9596H15.7673C17.3075 15.9596 18.0775 15.9596 18.6658 15.6599C19.1832 15.3963 19.6039 14.9756 19.8676 14.4581C20.1673 13.8699 20.1673 13.0998 20.1673 11.5596V5.69297C20.1673 4.15282 20.1673 3.38275 19.8676 2.79449C19.6039 2.27705 19.1832 1.85635 18.6658 1.5927C18.0775 1.29297 17.3075 1.29297 15.7673 1.29297H6.23398C4.69384 1.29297 3.92377 1.29297 3.33551 1.5927C2.81806 1.85635 2.39737 2.27705 2.13372 2.79449C1.83398 3.38275 1.83398 4.15282 1.83398 5.69297V11.5596C1.83398 13.0998 1.83398 13.8699 2.13372 14.4581C2.39737 14.9756 2.81806 15.3963 3.33551 15.6599C3.92377 15.9596 4.69384 15.9596 6.23398 15.9596Z" stroke="#0077CC" stroke-width="1.83333" stroke-linecap="round" stroke-linejoin="round"/>
</svg>
