<svg width="42" height="42" viewBox="0 0 42 42" fill="none" xmlns="http://www.w3.org/2000/svg">
<rect width="42" height="42" rx="21" fill="white" fill-opacity="0.1"/>
<g clip-path="url(#clip0_1072_28014)">
<path d="M33 21C33 14.3726 27.6274 9 21 9C14.3726 9 9 14.3726 9 21C9 26.9895 13.3882 31.954 19.125 32.8542V24.4688H16.0781V21H19.125V18.3563C19.125 15.3488 20.9166 13.6875 23.6576 13.6875C24.9701 13.6875 26.3438 13.9219 26.3438 13.9219V16.875H24.8306C23.34 16.875 22.875 17.8001 22.875 18.75V21H26.2031L25.6711 24.4688H22.875V32.8542C28.6118 31.954 33 26.9895 33 21Z" fill="white"/>
</g>
<defs>
<clipPath id="clip0_1072_28014">
<rect width="24" height="24" fill="white" transform="translate(9 9)"/>
</clipPath>
</defs>
</svg>
