<svg width="152" height="42" viewBox="0 0 152 42" fill="none" xmlns="http://www.w3.org/2000/svg">
<path d="M9.92773 0.00341797C10.2113 -0.0283415 10.4672 0.175923 10.499 0.459473L12.6865 19.9917C12.7183 20.2753 12.514 20.5311 12.2305 20.563L2.76074 21.6235C2.47732 21.655 2.22227 21.4509 2.19043 21.1675L0.00292969 1.63525C-0.0288377 1.35159 0.175325 1.09573 0.458984 1.06396L9.92773 0.00341797ZM23.791 7.49268C24.0747 7.46091 24.3305 7.66507 24.3623 7.94873L25.5498 18.5503C25.5816 18.834 25.3774 19.0898 25.0938 19.1216L15.625 20.1821C15.3414 20.2139 15.0855 20.0097 15.0537 19.7261L13.8662 9.12354C13.8347 8.84009 14.0388 8.58504 14.3223 8.55322L23.791 7.49268ZM36.4082 2.41553C36.6919 2.38376 36.9477 2.58792 36.9795 2.87158L38.5625 17.0044C38.5942 17.288 38.3901 17.5439 38.1064 17.5757L28.6377 18.6362C28.3542 18.668 28.0983 18.4637 28.0664 18.1802L26.4834 4.04736C26.4516 3.76377 26.6559 3.50793 26.9395 3.47607L36.4082 2.41553Z" fill="url(#paint0_linear_844_62676)"/>
<path d="M38.4189 20.3779C38.7024 20.3464 38.9583 20.5506 38.9902 20.834L41.1777 40.3662C41.2092 40.6496 41.005 40.9046 40.7217 40.9365L31.2529 41.9971C30.9693 42.0288 30.7134 41.8247 30.6816 41.541L28.4941 22.0088C28.4627 21.7254 28.6667 21.4702 28.9502 21.4385L38.4189 20.3779ZM12.5439 23.3633C12.8273 23.3318 13.0832 23.5361 13.1152 23.8193L14.6982 37.9521C14.73 38.2357 14.5256 38.4915 14.2422 38.5234L4.77344 39.584C4.48978 39.6158 4.23392 39.4116 4.20215 39.1279L2.61914 24.9951C2.58755 24.7116 2.79169 24.4556 3.0752 24.4238L12.5439 23.3633ZM25.4316 21.9014C25.7151 21.8698 25.971 22.074 26.0029 22.3574L27.1904 32.959C27.2222 33.2424 27.0176 33.4981 26.7344 33.5303L17.2842 34.5889C17.0007 34.6204 16.7447 34.4163 16.7129 34.1328L15.5264 23.5303C15.4949 23.2468 15.6989 22.9907 15.9824 22.959L25.4316 21.9014Z" fill="url(#paint1_linear_844_62676)"/>
<mask id="path-3-outside-1_844_62676" maskUnits="userSpaceOnUse" x="50.1816" y="8.5" width="100" height="19" fill="black">
<rect fill="white" x="50.1816" y="8.5" width="100" height="19"/>
<path d="M64.8278 26.5H61.6503V19.9479H54.4408V26.5H51.2634V10.3718H54.4408V16.8801H61.6503V10.3718H64.8278V26.5ZM82.3933 10.3718L76.3453 21.4818V26.5H73.1678V21.4818L67.2293 10.3718H71.1518L74.8551 17.8223L78.4708 10.3718H82.3933ZM92.6383 14.2724C91.2359 13.4981 90.016 13.111 88.9788 13.111C88.2776 13.111 87.7297 13.2497 87.3353 13.5273C86.9555 13.8049 86.7656 14.2212 86.7656 14.7764C86.7656 15.2877 87.0431 15.7406 87.5983 16.135C88.168 16.5148 88.9204 16.8801 89.8553 17.2307C90.615 17.5082 91.2651 17.8296 91.8056 18.1949C92.3461 18.5455 92.7917 19.0349 93.1423 19.663C93.5076 20.2912 93.6902 21.0874 93.6902 22.0516C93.6902 22.8843 93.471 23.6586 93.0328 24.3744C92.6091 25.0756 91.9809 25.6381 91.1482 26.0617C90.3155 26.4708 89.3221 26.6753 88.168 26.6753C87.2038 26.6753 86.2469 26.5365 85.2974 26.259C84.3478 25.9668 83.4639 25.5285 82.6458 24.9442L84.0483 22.4679C84.6034 22.877 85.2389 23.213 85.9548 23.476C86.6706 23.7389 87.3134 23.8704 87.8831 23.8704C88.5551 23.8704 89.1395 23.7316 89.6362 23.454C90.1329 23.1619 90.3813 22.6944 90.3813 22.0516C90.3813 21.2189 89.5997 20.4958 88.0365 19.8822C87.1162 19.517 86.3492 19.1663 85.7356 18.8303C85.1221 18.4943 84.5888 18.0122 84.136 17.3841C83.6977 16.7559 83.4786 15.967 83.4786 15.0174C83.4786 13.6296 83.9314 12.512 84.8372 11.6647C85.7575 10.8174 86.9774 10.3572 88.4967 10.2841C89.6946 10.2841 90.6953 10.4229 91.4988 10.7005C92.3023 10.9635 93.0839 11.3433 93.8436 11.84L92.6383 14.2724ZM104.778 23.3445H99.4316L98.1168 26.5H94.9832L102.258 9.73631H102.434L109.709 26.5H106.028L104.778 23.3445ZM103.727 20.6711L102.171 16.7486L100.549 20.6711H103.727ZM120.365 17.9976C121.212 18.3921 121.87 18.9107 122.337 19.5535C122.819 20.1817 123.061 20.9121 123.061 21.7448C123.061 23.381 122.52 24.5862 121.439 25.3605C120.372 26.1202 119.036 26.5 117.429 26.5H112.06V10.3718H116.793C118.503 10.3718 119.847 10.7224 120.825 11.4236C121.804 12.1103 122.294 13.111 122.294 14.4258C122.294 15.2292 122.126 15.9378 121.79 16.5514C121.454 17.1503 120.979 17.6324 120.365 17.9976ZM115.237 16.9677H117.166C117.75 16.9677 118.203 16.7924 118.524 16.4418C118.846 16.0766 119.007 15.631 119.007 15.1051C119.007 14.5645 118.824 14.1555 118.459 13.8779C118.093 13.5858 117.589 13.4397 116.947 13.4397H115.237V16.9677ZM117.275 23.5417C118.02 23.5417 118.619 23.3956 119.072 23.1034C119.54 22.7966 119.774 22.3438 119.774 21.7448C119.774 20.6053 118.868 20.0356 117.056 20.0356H115.237V23.5417H117.275ZM133.668 23.3445H128.321L127.006 26.5H123.873L131.148 9.73631H131.323L138.599 26.5H134.917L133.668 23.3445ZM132.616 20.6711L131.06 16.7486L129.439 20.6711H132.616ZM149.418 10.3718V13.4397H145.495V26.5H142.318V13.4397H138.549V10.3718H149.418Z"/>
</mask>
<path d="M64.8278 26.5H61.6503V19.9479H54.4408V26.5H51.2634V10.3718H54.4408V16.8801H61.6503V10.3718H64.8278V26.5ZM82.3933 10.3718L76.3453 21.4818V26.5H73.1678V21.4818L67.2293 10.3718H71.1518L74.8551 17.8223L78.4708 10.3718H82.3933ZM92.6383 14.2724C91.2359 13.4981 90.016 13.111 88.9788 13.111C88.2776 13.111 87.7297 13.2497 87.3353 13.5273C86.9555 13.8049 86.7656 14.2212 86.7656 14.7764C86.7656 15.2877 87.0431 15.7406 87.5983 16.135C88.168 16.5148 88.9204 16.8801 89.8553 17.2307C90.615 17.5082 91.2651 17.8296 91.8056 18.1949C92.3461 18.5455 92.7917 19.0349 93.1423 19.663C93.5076 20.2912 93.6902 21.0874 93.6902 22.0516C93.6902 22.8843 93.471 23.6586 93.0328 24.3744C92.6091 25.0756 91.9809 25.6381 91.1482 26.0617C90.3155 26.4708 89.3221 26.6753 88.168 26.6753C87.2038 26.6753 86.2469 26.5365 85.2974 26.259C84.3478 25.9668 83.4639 25.5285 82.6458 24.9442L84.0483 22.4679C84.6034 22.877 85.2389 23.213 85.9548 23.476C86.6706 23.7389 87.3134 23.8704 87.8831 23.8704C88.5551 23.8704 89.1395 23.7316 89.6362 23.454C90.1329 23.1619 90.3813 22.6944 90.3813 22.0516C90.3813 21.2189 89.5997 20.4958 88.0365 19.8822C87.1162 19.517 86.3492 19.1663 85.7356 18.8303C85.1221 18.4943 84.5888 18.0122 84.136 17.3841C83.6977 16.7559 83.4786 15.967 83.4786 15.0174C83.4786 13.6296 83.9314 12.512 84.8372 11.6647C85.7575 10.8174 86.9774 10.3572 88.4967 10.2841C89.6946 10.2841 90.6953 10.4229 91.4988 10.7005C92.3023 10.9635 93.0839 11.3433 93.8436 11.84L92.6383 14.2724ZM104.778 23.3445H99.4316L98.1168 26.5H94.9832L102.258 9.73631H102.434L109.709 26.5H106.028L104.778 23.3445ZM103.727 20.6711L102.171 16.7486L100.549 20.6711H103.727ZM120.365 17.9976C121.212 18.3921 121.87 18.9107 122.337 19.5535C122.819 20.1817 123.061 20.9121 123.061 21.7448C123.061 23.381 122.52 24.5862 121.439 25.3605C120.372 26.1202 119.036 26.5 117.429 26.5H112.06V10.3718H116.793C118.503 10.3718 119.847 10.7224 120.825 11.4236C121.804 12.1103 122.294 13.111 122.294 14.4258C122.294 15.2292 122.126 15.9378 121.79 16.5514C121.454 17.1503 120.979 17.6324 120.365 17.9976ZM115.237 16.9677H117.166C117.75 16.9677 118.203 16.7924 118.524 16.4418C118.846 16.0766 119.007 15.631 119.007 15.1051C119.007 14.5645 118.824 14.1555 118.459 13.8779C118.093 13.5858 117.589 13.4397 116.947 13.4397H115.237V16.9677ZM117.275 23.5417C118.02 23.5417 118.619 23.3956 119.072 23.1034C119.54 22.7966 119.774 22.3438 119.774 21.7448C119.774 20.6053 118.868 20.0356 117.056 20.0356H115.237V23.5417H117.275ZM133.668 23.3445H128.321L127.006 26.5H123.873L131.148 9.73631H131.323L138.599 26.5H134.917L133.668 23.3445ZM132.616 20.6711L131.06 16.7486L129.439 20.6711H132.616ZM149.418 10.3718V13.4397H145.495V26.5H142.318V13.4397H138.549V10.3718H149.418Z" fill="url(#paint2_linear_844_62676)"/>
<path d="M64.8278 26.5V26.8H65.1278V26.5H64.8278ZM61.6503 26.5H61.3503V26.8H61.6503V26.5ZM61.6503 19.9479H61.9503V19.6479H61.6503V19.9479ZM54.4408 19.9479V19.6479H54.1408V19.9479H54.4408ZM54.4408 26.5V26.8H54.7408V26.5H54.4408ZM51.2634 26.5H50.9634V26.8H51.2634V26.5ZM51.2634 10.3718V10.0718H50.9634V10.3718H51.2634ZM54.4408 10.3718H54.7408V10.0718H54.4408V10.3718ZM54.4408 16.8801H54.1408V17.1801H54.4408V16.8801ZM61.6503 16.8801V17.1801H61.9503V16.8801H61.6503ZM61.6503 10.3718V10.0718H61.3503V10.3718H61.6503ZM64.8278 10.3718H65.1278V10.0718H64.8278V10.3718ZM64.8278 26.5V26.2H61.6503V26.5V26.8H64.8278V26.5ZM61.6503 26.5H61.9503V19.9479H61.6503H61.3503V26.5H61.6503ZM61.6503 19.9479V19.6479H54.4408V19.9479V20.2479H61.6503V19.9479ZM54.4408 19.9479H54.1408V26.5H54.4408H54.7408V19.9479H54.4408ZM54.4408 26.5V26.2H51.2634V26.5V26.8H54.4408V26.5ZM51.2634 26.5H51.5634V10.3718H51.2634H50.9634V26.5H51.2634ZM51.2634 10.3718V10.6718H54.4408V10.3718V10.0718H51.2634V10.3718ZM54.4408 10.3718H54.1408V16.8801H54.4408H54.7408V10.3718H54.4408ZM54.4408 16.8801V17.1801H61.6503V16.8801V16.5801H54.4408V16.8801ZM61.6503 16.8801H61.9503V10.3718H61.6503H61.3503V16.8801H61.6503ZM61.6503 10.3718V10.6718H64.8278V10.3718V10.0718H61.6503V10.3718ZM64.8278 10.3718H64.5277V26.5H64.8278H65.1278V10.3718H64.8278ZM82.3933 10.3718L82.6568 10.5152L82.8982 10.0718H82.3933V10.3718ZM76.3453 21.4818L76.0818 21.3384L76.0453 21.4055V21.4818H76.3453ZM76.3453 26.5V26.8H76.6453V26.5H76.3453ZM73.1678 26.5H72.8678V26.8H73.1678V26.5ZM73.1678 21.4818H73.4678V21.4067L73.4324 21.3404L73.1678 21.4818ZM67.2293 10.3718V10.0718H66.7288L66.9647 10.5132L67.2293 10.3718ZM71.1518 10.3718L71.4204 10.2383L71.3377 10.0718H71.1518V10.3718ZM74.8551 17.8223L74.5865 17.9559L74.8584 18.5028L75.125 17.9533L74.8551 17.8223ZM78.4708 10.3718V10.0718H78.283L78.2009 10.2408L78.4708 10.3718ZM82.3933 10.3718L82.1298 10.2284L76.0818 21.3384L76.3453 21.4818L76.6087 21.6253L82.6568 10.5152L82.3933 10.3718ZM76.3453 21.4818H76.0453V26.5H76.3453H76.6453V21.4818H76.3453ZM76.3453 26.5V26.2H73.1678V26.5V26.8H76.3453V26.5ZM73.1678 26.5H73.4678V21.4818H73.1678H72.8678V26.5H73.1678ZM73.1678 21.4818L73.4324 21.3404L67.4939 10.2304L67.2293 10.3718L66.9647 10.5132L72.9032 21.6233L73.1678 21.4818ZM67.2293 10.3718V10.6718H71.1518V10.3718V10.0718H67.2293V10.3718ZM71.1518 10.3718L70.8832 10.5053L74.5865 17.9559L74.8551 17.8223L75.1238 17.6888L71.4204 10.2383L71.1518 10.3718ZM74.8551 17.8223L75.125 17.9533L78.7407 10.5028L78.4708 10.3718L78.2009 10.2408L74.5853 17.6913L74.8551 17.8223ZM78.4708 10.3718V10.6718H82.3933V10.3718V10.0718H78.4708V10.3718ZM92.6383 14.2724L92.4933 14.535L92.7679 14.6866L92.9071 14.4056L92.6383 14.2724ZM87.3353 13.5273L87.1626 13.2819L87.1583 13.2851L87.3353 13.5273ZM87.5983 16.135L87.4244 16.3797L87.4318 16.3846L87.5983 16.135ZM89.8553 17.2307L89.75 17.5116L89.7524 17.5124L89.8553 17.2307ZM91.8056 18.1949L91.6376 18.4435L91.6424 18.4465L91.8056 18.1949ZM93.1423 19.663L92.8803 19.8093L92.883 19.8138L93.1423 19.663ZM93.0328 24.3744L92.7769 24.2178L92.776 24.2193L93.0328 24.3744ZM91.1482 26.0617L91.2805 26.331L91.2843 26.3291L91.1482 26.0617ZM85.2974 26.259L85.2091 26.5457L85.2132 26.5469L85.2974 26.259ZM82.6458 24.9442L82.3848 24.7963L82.2517 25.0313L82.4715 25.1883L82.6458 24.9442ZM84.0483 22.4679L84.2263 22.2264L83.954 22.0258L83.7873 22.3201L84.0483 22.4679ZM85.9548 23.476L86.0582 23.1944L85.9548 23.476ZM89.6362 23.454L89.7826 23.716L89.7883 23.7126L89.6362 23.454ZM88.0365 19.8822L87.9259 20.161L87.9269 20.1614L88.0365 19.8822ZM84.136 17.3841L83.8899 17.5557L83.8926 17.5595L84.136 17.3841ZM84.8372 11.6647L84.634 11.444L84.6322 11.4456L84.8372 11.6647ZM88.4967 10.2841V9.98414H88.4895L88.4823 9.98449L88.4967 10.2841ZM91.4988 10.7005L91.4009 10.9841L91.4055 10.9856L91.4988 10.7005ZM93.8436 11.84L94.1124 11.9732L94.2306 11.7346L94.0077 11.5889L93.8436 11.84ZM92.6383 14.2724L92.7833 14.0097C91.3585 13.2231 90.0871 12.811 88.9788 12.811V13.111V13.411C89.945 13.411 91.1132 13.7731 92.4933 14.535L92.6383 14.2724ZM88.9788 13.111V12.811C88.2426 12.811 87.6258 12.956 87.1627 13.282L87.3353 13.5273L87.5079 13.7727C87.8336 13.5435 88.3126 13.411 88.9788 13.411V13.111ZM87.3353 13.5273L87.1583 13.2851C86.6866 13.6298 86.4655 14.1451 86.4655 14.7764H86.7656H87.0656C87.0656 14.2974 87.2243 13.98 87.5123 13.7695L87.3353 13.5273ZM86.7656 14.7764H86.4655C86.4655 15.4155 86.819 15.9493 87.4245 16.3796L87.5983 16.135L87.772 15.8904C87.2673 15.5318 87.0656 15.1599 87.0656 14.7764H86.7656ZM87.5983 16.135L87.4318 16.3846C88.0272 16.7815 88.8024 17.1562 89.75 17.5116L89.8553 17.2307L89.9607 16.9498C89.0383 16.6039 88.3088 16.2481 87.7647 15.8854L87.5983 16.135ZM89.8553 17.2307L89.7524 17.5124C90.4943 17.7835 91.1215 18.0947 91.6377 18.4434L91.8056 18.1949L91.9736 17.9463C91.4087 17.5646 90.7357 17.2329 89.9583 16.9489L89.8553 17.2307ZM91.8056 18.1949L91.6424 18.4465C92.1373 18.7676 92.5508 19.2187 92.8804 19.8093L93.1423 19.663L93.4043 19.5168C93.0327 18.851 92.555 18.3234 91.9689 17.9432L91.8056 18.1949ZM93.1423 19.663L92.883 19.8138C93.2142 20.3836 93.3902 21.1236 93.3902 22.0516H93.6902H93.9902C93.9902 21.0512 93.8009 20.1988 93.4017 19.5123L93.1423 19.663ZM93.6902 22.0516H93.3902C93.3902 22.8286 93.1865 23.5487 92.7769 24.2178L93.0328 24.3744L93.2886 24.5311C93.7555 23.7685 93.9902 22.9401 93.9902 22.0516H93.6902ZM93.0328 24.3744L92.776 24.2193C92.3852 24.8661 91.8021 25.3924 91.0122 25.7943L91.1482 26.0617L91.2843 26.3291C92.1597 25.8837 92.833 25.2852 93.2895 24.5295L93.0328 24.3744ZM91.1482 26.0617L91.0159 25.7925C90.2332 26.177 89.2872 26.3753 88.168 26.3753V26.6753V26.9753C89.357 26.9753 90.3978 26.7646 91.2805 26.331L91.1482 26.0617ZM88.168 26.6753V26.3753C87.233 26.3753 86.3045 26.2408 85.3815 25.971L85.2974 26.259L85.2132 26.5469C86.1894 26.8323 87.1746 26.9753 88.168 26.9753V26.6753ZM85.2974 26.259L85.3856 25.9722C84.4672 25.6896 83.6124 25.2659 82.8202 24.7L82.6458 24.9442L82.4715 25.1883C83.3155 25.7911 84.2284 26.2439 85.2091 26.5457L85.2974 26.259ZM82.6458 24.9442L82.9069 25.092L84.3093 22.6158L84.0483 22.4679L83.7873 22.3201L82.3848 24.7963L82.6458 24.9442ZM84.0483 22.4679L83.8703 22.7095C84.4506 23.137 85.1117 23.4859 85.8513 23.7576L85.9548 23.476L86.0582 23.1944C85.3662 22.9402 84.7563 22.617 84.2263 22.2264L84.0483 22.4679ZM85.9548 23.476L85.8513 23.7576C86.5898 24.0288 87.2684 24.1704 87.8831 24.1704V23.8704V23.5704C87.3584 23.5704 86.7514 23.449 86.0582 23.1944L85.9548 23.476ZM87.8831 23.8704V24.1704C88.5971 24.1704 89.2336 24.0227 89.7825 23.7159L89.6362 23.454L89.4898 23.1922C89.0453 23.4406 88.5132 23.5704 87.8831 23.5704V23.8704ZM89.6362 23.454L89.7883 23.7126C90.3887 23.3595 90.6813 22.7859 90.6813 22.0516H90.3812H90.0812C90.0812 22.6028 89.8771 22.9643 89.4841 23.1955L89.6362 23.454ZM90.3812 22.0516H90.6813C90.6813 21.5298 90.4328 21.0661 89.9988 20.6645C89.5694 20.2672 88.9447 19.9164 88.1461 19.6029L88.0365 19.8822L87.9269 20.1614C88.6915 20.4615 89.2392 20.7791 89.5913 21.1049C89.9389 21.4265 90.0812 21.7407 90.0812 22.0516H90.3812ZM88.0365 19.8822L88.1472 19.6033C87.234 19.241 86.4791 18.8954 85.8797 18.5672L85.7356 18.8303L85.5915 19.0935C86.2193 19.4373 86.9983 19.793 87.9259 20.161L88.0365 19.8822ZM85.7356 18.8303L85.8797 18.5672C85.3094 18.2549 84.8089 17.8045 84.3793 17.2086L84.136 17.3841L83.8926 17.5595C84.3688 18.22 84.9347 18.7338 85.5915 19.0935L85.7356 18.8303ZM84.136 17.3841L84.382 17.2124C83.9865 16.6455 83.7786 15.9205 83.7786 15.0174H83.4786H83.1786C83.1786 16.0135 83.4089 16.8662 83.8899 17.5557L84.136 17.3841ZM83.4786 15.0174H83.7786C83.7786 13.7017 84.2046 12.6673 85.0421 11.8838L84.8372 11.6647L84.6322 11.4456C83.6583 12.3567 83.1786 13.5575 83.1786 15.0174H83.4786ZM84.8372 11.6647L85.0404 11.8854C85.8985 11.0954 87.0463 10.6542 88.5111 10.5838L88.4967 10.2841L88.4823 9.98449C86.9085 10.0602 85.6166 10.5393 84.634 11.444L84.8372 11.6647ZM88.4967 10.2841V10.5841C89.6738 10.5841 90.6389 10.7208 91.4009 10.9841L91.4988 10.7005L91.5968 10.4169C90.7518 10.125 89.7154 9.98414 88.4967 9.98414V10.2841ZM91.4988 10.7005L91.4055 10.9856C92.1822 11.2398 92.9401 11.6077 93.6794 12.0911L93.8436 11.84L94.0077 11.5889C93.2277 11.0788 92.4224 10.6871 91.5921 10.4154L91.4988 10.7005ZM93.8436 11.84L93.5747 11.7068L92.3695 14.1392L92.6383 14.2724L92.9071 14.4056L94.1124 11.9732L93.8436 11.84ZM104.778 23.3445L105.057 23.2341L104.982 23.0445H104.778V23.3445ZM99.4316 23.3445V23.0445H99.2316L99.1547 23.2291L99.4316 23.3445ZM98.1168 26.5V26.8H98.3168L98.3937 26.6154L98.1168 26.5ZM94.9832 26.5L94.708 26.3806L94.526 26.8H94.9832V26.5ZM102.258 9.73631V9.43631H102.062L101.983 9.61688L102.258 9.73631ZM102.434 9.73631L102.709 9.61688L102.631 9.43631H102.434V9.73631ZM109.709 26.5V26.8H110.166L109.984 26.3806L109.709 26.5ZM106.028 26.5L105.749 26.6104L105.824 26.8H106.028V26.5ZM103.727 20.6711V20.9711H104.168L104.005 20.5604L103.727 20.6711ZM102.171 16.7486L102.45 16.638L102.177 15.9494L101.894 16.634L102.171 16.7486ZM100.549 20.6711L100.272 20.5564L100.101 20.9711H100.549V20.6711ZM104.778 23.3445V23.0445H99.4316V23.3445V23.6445H104.778V23.3445ZM99.4316 23.3445L99.1547 23.2291L97.8399 26.3846L98.1168 26.5L98.3937 26.6154L99.7085 23.4599L99.4316 23.3445ZM98.1168 26.5V26.2H94.9832V26.5V26.8H98.1168V26.5ZM94.9832 26.5L95.2584 26.6194L102.534 9.85574L102.258 9.73631L101.983 9.61688L94.708 26.3806L94.9832 26.5ZM102.258 9.73631V10.0363H102.434V9.73631V9.43631H102.258V9.73631ZM102.434 9.73631L102.159 9.85574L109.434 26.6194L109.709 26.5L109.984 26.3806L102.709 9.61688L102.434 9.73631ZM109.709 26.5V26.2H106.028V26.5V26.8H109.709V26.5ZM106.028 26.5L106.306 26.3896L105.057 23.2341L104.778 23.3445L104.5 23.4549L105.749 26.6104L106.028 26.5ZM103.727 20.6711L104.005 20.5604L102.45 16.638L102.171 16.7486L101.892 16.8592L103.448 20.7817L103.727 20.6711ZM102.171 16.7486L101.894 16.634L100.272 20.5564L100.549 20.6711L100.826 20.7857L102.448 16.8632L102.171 16.7486ZM100.549 20.6711V20.9711H103.727V20.6711V20.3711H100.549V20.6711ZM120.365 17.9976L120.212 17.7398L119.724 18.0301L120.239 18.2696L120.365 17.9976ZM122.337 19.5535L122.095 19.73L122.099 19.7361L122.337 19.5535ZM121.439 25.3605L121.613 25.6049L121.614 25.6044L121.439 25.3605ZM112.06 26.5H111.76V26.8H112.06V26.5ZM112.06 10.3718V10.0718H111.76V10.3718H112.06ZM120.825 11.4236L120.651 11.6675L120.653 11.6692L120.825 11.4236ZM121.79 16.5514L122.051 16.6981L122.053 16.6954L121.79 16.5514ZM115.237 16.9677H114.937V17.2677H115.237V16.9677ZM118.524 16.4418L118.746 16.6445L118.75 16.64L118.524 16.4418ZM118.459 13.8779L118.271 14.1123L118.277 14.1168L118.459 13.8779ZM115.237 13.4397V13.1397H114.937V13.4397H115.237ZM119.072 23.1034L119.235 23.3555L119.237 23.3543L119.072 23.1034ZM115.237 20.0356V19.7356H114.937V20.0356H115.237ZM115.237 23.5417H114.937V23.8417H115.237V23.5417ZM120.365 17.9976L120.239 18.2696C121.048 18.6464 121.662 19.135 122.095 19.7299L122.337 19.5535L122.58 19.377C122.078 18.6864 121.377 18.1378 120.492 17.7257L120.365 17.9976ZM122.337 19.5535L122.099 19.7361C122.539 20.3091 122.761 20.9745 122.761 21.7448H123.061H123.361C123.361 20.8497 123.1 20.0542 122.575 19.3708L122.337 19.5535ZM123.061 21.7448H122.761C122.761 23.3093 122.248 24.4118 121.264 25.1166L121.439 25.3605L121.614 25.6044C122.792 24.7606 123.361 23.4527 123.361 21.7448H123.061ZM121.439 25.3605L121.265 25.1162C120.26 25.8321 118.988 26.2 117.429 26.2V26.5V26.8C119.084 26.8 120.485 26.4083 121.613 25.6049L121.439 25.3605ZM117.429 26.5V26.2H112.06V26.5V26.8H117.429V26.5ZM112.06 26.5H112.36V10.3718H112.06H111.76V26.5H112.06ZM112.06 10.3718V10.6718H116.793V10.3718V10.0718H112.06V10.3718ZM116.793 10.3718V10.6718C118.465 10.6718 119.74 11.0152 120.651 11.6675L120.825 11.4236L121 11.1798C119.953 10.4296 118.54 10.0718 116.793 10.0718V10.3718ZM120.825 11.4236L120.653 11.6692C121.543 12.2935 121.994 13.1974 121.994 14.4258H122.294H122.594C122.594 13.0246 122.065 11.9271 120.998 11.178L120.825 11.4236ZM122.294 14.4258H121.994C121.994 15.1864 121.835 15.844 121.526 16.4073L121.79 16.5514L122.053 16.6954C122.416 16.0315 122.594 15.2721 122.594 14.4258H122.294ZM121.79 16.5514L121.528 16.4046C121.219 16.9558 120.782 17.4004 120.212 17.7398L120.365 17.9976L120.519 18.2554C121.175 17.8644 121.688 17.3448 122.051 16.6981L121.79 16.5514ZM115.237 16.9677V17.2677H117.166V16.9677V16.6677H115.237V16.9677ZM117.166 16.9677V17.2677C117.814 17.2677 118.355 17.0709 118.746 16.6445L118.524 16.4418L118.303 16.2391C118.051 16.5139 117.687 16.6677 117.166 16.6677V16.9677ZM118.524 16.4418L118.75 16.64C119.123 16.2154 119.307 15.6975 119.307 15.1051H119.007H118.707C118.707 15.5644 118.568 15.9378 118.299 16.2436L118.524 16.4418ZM119.007 15.1051H119.307C119.307 14.4896 119.094 13.9839 118.64 13.6391L118.459 13.8779L118.277 14.1168C118.554 14.3271 118.707 14.6394 118.707 15.1051H119.007ZM118.459 13.8779L118.646 13.6437C118.211 13.2955 117.632 13.1397 116.947 13.1397V13.4397V13.7397C117.547 13.7397 117.976 13.876 118.271 14.1122L118.459 13.8779ZM116.947 13.4397V13.1397H115.237V13.4397V13.7397H116.947V13.4397ZM115.237 13.4397H114.937V16.9677H115.237H115.537V13.4397H115.237ZM117.275 23.5417V23.8417C118.057 23.8417 118.718 23.6888 119.235 23.3555L119.072 23.1034L118.91 22.8513C118.52 23.1024 117.984 23.2417 117.275 23.2417V23.5417ZM119.072 23.1034L119.237 23.3543C119.796 22.9875 120.074 22.4363 120.074 21.7448H119.774H119.474C119.474 22.2513 119.284 22.6058 118.908 22.8526L119.072 23.1034ZM119.774 21.7448H120.074C120.074 21.08 119.801 20.5529 119.254 20.2089C118.73 19.8797 117.984 19.7356 117.056 19.7356V20.0356V20.3356C117.94 20.3356 118.552 20.4763 118.934 20.7168C119.293 20.9426 119.474 21.2701 119.474 21.7448H119.774ZM117.056 20.0356V19.7356H115.237V20.0356V20.3356H117.056V20.0356ZM115.237 20.0356H114.937V23.5417H115.237H115.537V20.0356H115.237ZM115.237 23.5417V23.8417H117.275V23.5417V23.2417H115.237V23.5417ZM133.668 23.3445L133.947 23.2341L133.872 23.0445H133.668V23.3445ZM128.321 23.3445V23.0445H128.121L128.044 23.2291L128.321 23.3445ZM127.006 26.5V26.8H127.206L127.283 26.6154L127.006 26.5ZM123.873 26.5L123.598 26.3806L123.416 26.8H123.873V26.5ZM131.148 9.73631V9.43631H130.951L130.873 9.61688L131.148 9.73631ZM131.323 9.73631L131.599 9.61688L131.52 9.43631H131.323V9.73631ZM138.599 26.5V26.8H139.056L138.874 26.3806L138.599 26.5ZM134.917 26.5L134.638 26.6104L134.713 26.8H134.917V26.5ZM132.616 20.6711V20.9711H133.058L132.895 20.5604L132.616 20.6711ZM131.06 16.7486L131.339 16.638L131.066 15.9494L130.783 16.634L131.06 16.7486ZM129.439 20.6711L129.162 20.5564L128.99 20.9711H129.439V20.6711ZM133.668 23.3445V23.0445H128.321V23.3445V23.6445H133.668V23.3445ZM128.321 23.3445L128.044 23.2291L126.73 26.3846L127.006 26.5L127.283 26.6154L128.598 23.4599L128.321 23.3445ZM127.006 26.5V26.2H123.873V26.5V26.8H127.006V26.5ZM123.873 26.5L124.148 26.6194L131.423 9.85574L131.148 9.73631L130.873 9.61688L123.598 26.3806L123.873 26.5ZM131.148 9.73631V10.0363H131.323V9.73631V9.43631H131.148V9.73631ZM131.323 9.73631L131.048 9.85574L138.323 26.6194L138.599 26.5L138.874 26.3806L131.599 9.61688L131.323 9.73631ZM138.599 26.5V26.2H134.917V26.5V26.8H138.599V26.5ZM134.917 26.5L135.196 26.3896L133.947 23.2341L133.668 23.3445L133.389 23.4549L134.638 26.6104L134.917 26.5ZM132.616 20.6711L132.895 20.5604L131.339 16.638L131.06 16.7486L130.782 16.8592L132.337 20.7817L132.616 20.6711ZM131.06 16.7486L130.783 16.634L129.162 20.5564L129.439 20.6711L129.716 20.7857L131.338 16.8632L131.06 16.7486ZM129.439 20.6711V20.9711H132.616V20.6711V20.3711H129.439V20.6711ZM149.418 10.3718H149.718V10.0718H149.418V10.3718ZM149.418 13.4397V13.7397H149.718V13.4397H149.418ZM145.495 13.4397V13.1397H145.195V13.4397H145.495ZM145.495 26.5V26.8H145.795V26.5H145.495ZM142.318 26.5H142.018V26.8H142.318V26.5ZM142.318 13.4397H142.618V13.1397H142.318V13.4397ZM138.549 13.4397H138.249V13.7397H138.549V13.4397ZM138.549 10.3718V10.0718H138.249V10.3718H138.549ZM149.418 10.3718H149.118V13.4397H149.418H149.718V10.3718H149.418ZM149.418 13.4397V13.1397H145.495V13.4397V13.7397H149.418V13.4397ZM145.495 13.4397H145.195V26.5H145.495H145.795V13.4397H145.495ZM145.495 26.5V26.2H142.318V26.5V26.8H145.495V26.5ZM142.318 26.5H142.618V13.4397H142.318H142.018V26.5H142.318ZM142.318 13.4397V13.1397H138.549V13.4397V13.7397H142.318V13.4397ZM138.549 13.4397H138.849V10.3718H138.549H138.249V13.4397H138.549ZM138.549 10.3718V10.6718H149.418V10.3718V10.0718H138.549V10.3718Z" fill="url(#paint3_linear_844_62676)" mask="url(#path-3-outside-1_844_62676)"/>
<defs>
<linearGradient id="paint0_linear_844_62676" x1="-0.000976562" y1="10.8138" x2="38.566" y2="10.8138" gradientUnits="userSpaceOnUse">
<stop stop-color="#0096FF"/>
<stop offset="1" stop-color="#005A99"/>
</linearGradient>
<linearGradient id="paint1_linear_844_62676" x1="19.9214" y1="39.6684" x2="16.4214" y2="8.94599" gradientUnits="userSpaceOnUse">
<stop stop-color="#0096FF" stop-opacity="0"/>
<stop offset="1" stop-color="#005A99" stop-opacity="0.7"/>
</linearGradient>
<linearGradient id="paint2_linear_844_62676" x1="49.1816" y1="21" x2="151.182" y2="21" gradientUnits="userSpaceOnUse">
<stop stop-color="#0096FF"/>
<stop offset="1" stop-color="#005A99"/>
</linearGradient>
<linearGradient id="paint3_linear_844_62676" x1="49.1816" y1="21" x2="151.182" y2="21" gradientUnits="userSpaceOnUse">
<stop stop-color="#0096FF"/>
<stop offset="1" stop-color="#005A99"/>
</linearGradient>
</defs>
</svg>
