<svg width="22" height="22" viewBox="0 0 22 22" fill="none" xmlns="http://www.w3.org/2000/svg">
<path d="M7.68192 8.11753C8.31992 9.44634 9.18964 10.6918 10.2911 11.7932C11.3925 12.8947 12.638 13.7644 13.9668 14.4024C14.0811 14.4573 14.1382 14.4847 14.2105 14.5058C14.4675 14.5807 14.7831 14.5269 15.0007 14.371C15.062 14.3272 15.1144 14.2748 15.2192 14.17C15.5396 13.8495 15.6999 13.6893 15.861 13.5845C16.4687 13.1895 17.252 13.1895 17.8597 13.5845C18.0208 13.6893 18.181 13.8495 18.5015 14.17L18.6801 14.3486C19.1673 14.8358 19.4109 15.0794 19.5432 15.341C19.8063 15.8612 19.8063 16.4756 19.5432 16.9959C19.4109 17.2575 19.1673 17.5011 18.6801 17.9882L18.5356 18.1327C18.0502 18.6182 17.8074 18.861 17.4774 19.0464C17.1112 19.2521 16.5424 19.4 16.1223 19.3987C15.7438 19.3976 15.4851 19.3242 14.9677 19.1773C12.1871 18.3881 9.56325 16.899 7.37427 14.71C5.18529 12.521 3.69619 9.89721 2.90697 7.1166C2.76011 6.59919 2.68668 6.34049 2.68555 5.96195C2.6843 5.54192 2.83222 4.97313 3.03794 4.60692C3.22333 4.27689 3.46608 4.03415 3.95156 3.54866L4.09606 3.40416C4.58322 2.917 4.8268 2.67343 5.08839 2.54111C5.60866 2.27796 6.22307 2.27796 6.74333 2.54111C7.00493 2.67343 7.24851 2.917 7.73567 3.40416L7.9143 3.58279C8.23477 3.90326 8.395 4.0635 8.49977 4.22463C8.89484 4.83228 8.89485 5.61564 8.49977 6.22329C8.395 6.38442 8.23477 6.54466 7.9143 6.86513C7.80951 6.96992 7.75712 7.02231 7.71326 7.08355C7.55742 7.3012 7.50361 7.61677 7.57852 7.87376C7.5996 7.94608 7.62704 8.00323 7.68192 8.11753Z" stroke="#0077CC" stroke-width="1.83333" stroke-linecap="round" stroke-linejoin="round"/>
</svg>
