<svg width="311" height="44" viewBox="0 0 311 44" fill="none" xmlns="http://www.w3.org/2000/svg">
<path d="M10.3389 1.00391C10.6224 0.972369 10.8774 1.17643 10.9092 1.45996L13.0967 20.9922C13.1283 21.2757 12.9242 21.5307 12.6406 21.5625L3.17188 22.623C2.88822 22.6548 2.63235 22.4507 2.60059 22.167L0.413086 2.63477C0.381589 2.35138 0.585777 2.09634 0.869141 2.06445L10.3389 1.00391ZM24.2021 8.49219C24.4857 8.46048 24.7416 8.66472 24.7734 8.94824L25.9609 19.5508C25.9925 19.8342 25.7882 20.0901 25.5049 20.1221L16.0352 21.1816C15.7516 21.2133 15.4956 21.0092 15.4639 20.7256L14.2773 10.124C14.2456 9.84036 14.4497 9.5845 14.7334 9.55273L24.2021 8.49219ZM36.8193 3.41504C37.1029 3.38331 37.3587 3.58761 37.3906 3.87109L38.9736 18.0039C39.0054 18.2874 38.801 18.5432 38.5176 18.5752L29.0479 19.6357C28.7643 19.6674 28.5083 19.4633 28.4766 19.1797L26.8945 5.04688C26.8628 4.76322 27.0669 4.50735 27.3506 4.47559L36.8193 3.41504Z" fill="url(#paint0_linear_1072_39766)"/>
<path d="M38.8311 21.3779C39.1143 21.3466 39.3705 21.5508 39.4023 21.834L41.5889 41.3662C41.6206 41.6497 41.4162 41.9055 41.1328 41.9375L31.6641 42.998C31.3805 43.0297 31.1246 42.8255 31.0928 42.542L28.9053 23.0098C28.8737 22.7263 29.0779 22.4704 29.3613 22.4385L38.8311 21.3779ZM12.9561 24.3643C13.2394 24.3328 13.4955 24.537 13.5273 24.8203L15.1094 38.9531C15.141 39.2366 14.9367 39.4924 14.6533 39.5244L5.18457 40.585C4.90112 40.6166 4.64526 40.4123 4.61328 40.1289L3.03125 25.9951C2.99982 25.7117 3.20384 25.4566 3.4873 25.4248L12.9561 24.3643ZM25.8428 22.9014C26.126 22.8699 26.382 23.0742 26.4141 23.3574L27.6016 33.96C27.6332 34.2434 27.4288 34.4992 27.1455 34.5312L17.6963 35.5889C17.4126 35.6206 17.1568 35.4165 17.125 35.1328L15.9375 24.5312C15.9059 24.2477 16.11 23.9918 16.3936 23.96L25.8428 22.9014Z" fill="url(#paint1_linear_1072_39766)"/>
<mask id="path-3-outside-1_1072_39766" maskUnits="userSpaceOnUse" x="52.5918" y="9.5" width="100" height="19" fill="black">
<rect fill="white" x="52.5918" y="9.5" width="100" height="19"/>
<path d="M67.2379 11.3718V27.5H64.0605V20.9479H56.851V27.5H53.6736V11.3718H56.851V17.8801H64.0605V11.3718H67.2379ZM75.578 22.4818L69.6395 11.3718H73.562L77.7255 19.7427L76.7832 19.8084L80.881 11.3718H84.8035L78.7554 22.4818V27.5H75.578V22.4818ZM95.0485 15.2724C94.4349 14.9364 93.8067 14.6588 93.1639 14.4397C92.5358 14.2205 91.9441 14.111 91.389 14.111C90.7023 14.111 90.1618 14.2497 89.7674 14.5273C89.3729 14.8049 89.1757 15.2212 89.1757 15.7764C89.1757 16.1562 89.3218 16.4995 89.614 16.8063C89.9208 17.0985 90.3079 17.3614 90.7754 17.5952C91.2575 17.8289 91.7542 18.0408 92.2655 18.2307C92.733 18.406 93.1932 18.6178 93.646 18.8662C94.1135 19.0999 94.5299 19.3994 94.8951 19.7646C95.2603 20.1152 95.5525 20.5608 95.7716 21.1013C95.9908 21.6272 96.1003 22.2773 96.1003 23.0516C96.1003 23.8697 95.8885 24.6294 95.4648 25.3306C95.0412 26.0318 94.4203 26.6016 93.6022 27.0398C92.7841 27.4635 91.7761 27.6753 90.5782 27.6753C89.9646 27.6753 89.3364 27.6169 88.6936 27.5C88.0654 27.3685 87.4446 27.1786 86.831 26.9303C86.2174 26.6673 85.6258 26.3386 85.056 25.9442L86.4585 23.4679C86.8383 23.7455 87.2473 23.9939 87.6856 24.213C88.1385 24.4175 88.5914 24.5782 89.0442 24.6951C89.4971 24.812 89.9135 24.8704 90.2933 24.8704C90.6731 24.8704 91.0529 24.8193 91.4328 24.717C91.8272 24.6001 92.1486 24.4102 92.397 24.1473C92.6599 23.8843 92.7914 23.5191 92.7914 23.0516C92.7914 22.7302 92.6818 22.438 92.4627 22.1751C92.2582 21.9121 91.9733 21.6711 91.6081 21.4519C91.2575 21.2328 90.8703 21.0429 90.4467 20.8822C89.95 20.6923 89.4387 20.4731 88.9127 20.2248C88.3868 19.9764 87.8901 19.6769 87.4226 19.3263C86.9698 18.9611 86.5972 18.5155 86.3051 17.9896C86.0275 17.4491 85.8887 16.7917 85.8887 16.0174C85.8887 15.0825 86.0932 14.2717 86.5023 13.585C86.9259 12.8984 87.5176 12.3579 88.2773 11.9635C89.0369 11.5544 89.9135 11.328 90.9069 11.2841C92.2071 11.2841 93.2589 11.4375 94.0624 11.7443C94.8805 12.0511 95.6109 12.4163 96.2537 12.84L95.0485 15.2724ZM97.3934 27.5L104.669 10.7363H104.844L112.119 27.5H108.438L103.792 15.7106L106.093 14.1329L100.527 27.5H97.3934ZM102.368 21.6711H107.211L108.328 24.3445H101.382L102.368 21.6711ZM119.203 11.3718C120.883 11.3718 122.22 11.7151 123.214 12.4017C124.207 13.0737 124.704 14.0817 124.704 15.4258C124.704 16.4192 124.455 17.2519 123.959 17.9239C123.477 18.5813 122.812 19.078 121.965 19.414C121.132 19.7354 120.175 19.8961 119.094 19.8961L118.59 18.1868C119.919 18.1868 121.095 18.3695 122.118 18.7347C123.155 19.0999 123.973 19.6258 124.572 20.3124C125.171 20.9844 125.471 21.7952 125.471 22.7448C125.471 23.6213 125.31 24.3664 124.989 24.98C124.682 25.5789 124.258 26.0683 123.718 26.4482C123.192 26.8134 122.593 27.0836 121.921 27.259C121.249 27.4197 120.555 27.5 119.839 27.5H114.47V11.3718H119.203ZM119.576 17.9677C120.204 17.9677 120.664 17.7778 120.957 17.398C121.263 17.0181 121.417 16.5872 121.417 16.1051C121.417 15.5499 121.227 15.1336 120.847 14.856C120.482 14.5784 119.985 14.4397 119.357 14.4397H117.648V17.9677H119.576ZM119.686 24.5417C120.153 24.5417 120.577 24.4833 120.957 24.3664C121.336 24.2349 121.636 24.0377 121.855 23.7747C122.074 23.4972 122.184 23.1539 122.184 22.7448C122.184 22.2773 122.052 21.9267 121.789 21.693C121.526 21.4446 121.183 21.2766 120.759 21.189C120.35 21.0867 119.919 21.0356 119.466 21.0356H117.648V24.5417H119.686ZM126.283 27.5L133.558 10.7363H133.734L141.009 27.5H137.327L132.682 15.7106L134.983 14.1329L129.417 27.5H126.283ZM131.257 21.6711H136.1L137.218 24.3445H130.271L131.257 21.6711ZM140.959 11.3718H151.828V14.4397H147.905V27.5H144.728V14.4397H140.959V11.3718Z"/>
</mask>
<path d="M67.2379 11.3718V27.5H64.0605V20.9479H56.851V27.5H53.6736V11.3718H56.851V17.8801H64.0605V11.3718H67.2379ZM75.578 22.4818L69.6395 11.3718H73.562L77.7255 19.7427L76.7832 19.8084L80.881 11.3718H84.8035L78.7554 22.4818V27.5H75.578V22.4818ZM95.0485 15.2724C94.4349 14.9364 93.8067 14.6588 93.1639 14.4397C92.5358 14.2205 91.9441 14.111 91.389 14.111C90.7023 14.111 90.1618 14.2497 89.7674 14.5273C89.3729 14.8049 89.1757 15.2212 89.1757 15.7764C89.1757 16.1562 89.3218 16.4995 89.614 16.8063C89.9208 17.0985 90.3079 17.3614 90.7754 17.5952C91.2575 17.8289 91.7542 18.0408 92.2655 18.2307C92.733 18.406 93.1932 18.6178 93.646 18.8662C94.1135 19.0999 94.5299 19.3994 94.8951 19.7646C95.2603 20.1152 95.5525 20.5608 95.7716 21.1013C95.9908 21.6272 96.1003 22.2773 96.1003 23.0516C96.1003 23.8697 95.8885 24.6294 95.4648 25.3306C95.0412 26.0318 94.4203 26.6016 93.6022 27.0398C92.7841 27.4635 91.7761 27.6753 90.5782 27.6753C89.9646 27.6753 89.3364 27.6169 88.6936 27.5C88.0654 27.3685 87.4446 27.1786 86.831 26.9303C86.2174 26.6673 85.6258 26.3386 85.056 25.9442L86.4585 23.4679C86.8383 23.7455 87.2473 23.9939 87.6856 24.213C88.1385 24.4175 88.5914 24.5782 89.0442 24.6951C89.4971 24.812 89.9135 24.8704 90.2933 24.8704C90.6731 24.8704 91.0529 24.8193 91.4328 24.717C91.8272 24.6001 92.1486 24.4102 92.397 24.1473C92.6599 23.8843 92.7914 23.5191 92.7914 23.0516C92.7914 22.7302 92.6818 22.438 92.4627 22.1751C92.2582 21.9121 91.9733 21.6711 91.6081 21.4519C91.2575 21.2328 90.8703 21.0429 90.4467 20.8822C89.95 20.6923 89.4387 20.4731 88.9127 20.2248C88.3868 19.9764 87.8901 19.6769 87.4226 19.3263C86.9698 18.9611 86.5972 18.5155 86.3051 17.9896C86.0275 17.4491 85.8887 16.7917 85.8887 16.0174C85.8887 15.0825 86.0932 14.2717 86.5023 13.585C86.9259 12.8984 87.5176 12.3579 88.2773 11.9635C89.0369 11.5544 89.9135 11.328 90.9069 11.2841C92.2071 11.2841 93.2589 11.4375 94.0624 11.7443C94.8805 12.0511 95.6109 12.4163 96.2537 12.84L95.0485 15.2724ZM97.3934 27.5L104.669 10.7363H104.844L112.119 27.5H108.438L103.792 15.7106L106.093 14.1329L100.527 27.5H97.3934ZM102.368 21.6711H107.211L108.328 24.3445H101.382L102.368 21.6711ZM119.203 11.3718C120.883 11.3718 122.22 11.7151 123.214 12.4017C124.207 13.0737 124.704 14.0817 124.704 15.4258C124.704 16.4192 124.455 17.2519 123.959 17.9239C123.477 18.5813 122.812 19.078 121.965 19.414C121.132 19.7354 120.175 19.8961 119.094 19.8961L118.59 18.1868C119.919 18.1868 121.095 18.3695 122.118 18.7347C123.155 19.0999 123.973 19.6258 124.572 20.3124C125.171 20.9844 125.471 21.7952 125.471 22.7448C125.471 23.6213 125.31 24.3664 124.989 24.98C124.682 25.5789 124.258 26.0683 123.718 26.4482C123.192 26.8134 122.593 27.0836 121.921 27.259C121.249 27.4197 120.555 27.5 119.839 27.5H114.47V11.3718H119.203ZM119.576 17.9677C120.204 17.9677 120.664 17.7778 120.957 17.398C121.263 17.0181 121.417 16.5872 121.417 16.1051C121.417 15.5499 121.227 15.1336 120.847 14.856C120.482 14.5784 119.985 14.4397 119.357 14.4397H117.648V17.9677H119.576ZM119.686 24.5417C120.153 24.5417 120.577 24.4833 120.957 24.3664C121.336 24.2349 121.636 24.0377 121.855 23.7747C122.074 23.4972 122.184 23.1539 122.184 22.7448C122.184 22.2773 122.052 21.9267 121.789 21.693C121.526 21.4446 121.183 21.2766 120.759 21.189C120.35 21.0867 119.919 21.0356 119.466 21.0356H117.648V24.5417H119.686ZM126.283 27.5L133.558 10.7363H133.734L141.009 27.5H137.327L132.682 15.7106L134.983 14.1329L129.417 27.5H126.283ZM131.257 21.6711H136.1L137.218 24.3445H130.271L131.257 21.6711ZM140.959 11.3718H151.828V14.4397H147.905V27.5H144.728V14.4397H140.959V11.3718Z" fill="url(#paint2_linear_1072_39766)"/>
<path d="M67.2379 11.3718H67.5379V11.0718H67.2379V11.3718ZM67.2379 27.5V27.8H67.5379V27.5H67.2379ZM64.0605 27.5H63.7605V27.8H64.0605V27.5ZM64.0605 20.9479H64.3605V20.6479H64.0605V20.9479ZM56.851 20.9479V20.6479H56.551V20.9479H56.851ZM56.851 27.5V27.8H57.151V27.5H56.851ZM53.6736 27.5H53.3736V27.8H53.6736V27.5ZM53.6736 11.3718V11.0718H53.3736V11.3718H53.6736ZM56.851 11.3718H57.151V11.0718H56.851V11.3718ZM56.851 17.8801H56.551V18.1801H56.851V17.8801ZM64.0605 17.8801V18.1801H64.3605V17.8801H64.0605ZM64.0605 11.3718V11.0718H63.7605V11.3718H64.0605ZM67.2379 11.3718H66.9379V27.5H67.2379H67.5379V11.3718H67.2379ZM67.2379 27.5V27.2H64.0605V27.5V27.8H67.2379V27.5ZM64.0605 27.5H64.3605V20.9479H64.0605H63.7605V27.5H64.0605ZM64.0605 20.9479V20.6479H56.851V20.9479V21.2479H64.0605V20.9479ZM56.851 20.9479H56.551V27.5H56.851H57.151V20.9479H56.851ZM56.851 27.5V27.2H53.6736V27.5V27.8H56.851V27.5ZM53.6736 27.5H53.9736V11.3718H53.6736H53.3736V27.5H53.6736ZM53.6736 11.3718V11.6718H56.851V11.3718V11.0718H53.6736V11.3718ZM56.851 11.3718H56.551V17.8801H56.851H57.151V11.3718H56.851ZM56.851 17.8801V18.1801H64.0605V17.8801V17.5801H56.851V17.8801ZM64.0605 17.8801H64.3605V11.3718H64.0605H63.7605V17.8801H64.0605ZM64.0605 11.3718V11.6718H67.2379V11.3718V11.0718H64.0605V11.3718ZM75.578 22.4818H75.878V22.4067L75.8426 22.3404L75.578 22.4818ZM69.6395 11.3718V11.0718H69.1389L69.3749 11.5132L69.6395 11.3718ZM73.562 11.3718L73.8306 11.2382L73.7478 11.0718H73.562V11.3718ZM77.7255 19.7427L77.7464 20.042L78.1939 20.0107L77.9941 19.6091L77.7255 19.7427ZM76.7832 19.8084L76.5134 19.6774L76.2868 20.1438L76.8041 20.1077L76.7832 19.8084ZM80.881 11.3718V11.0718H80.6932L80.6111 11.2407L80.881 11.3718ZM84.8035 11.3718L85.067 11.5152L85.3084 11.0718H84.8035V11.3718ZM78.7554 22.4818L78.4919 22.3384L78.4554 22.4055V22.4818H78.7554ZM78.7554 27.5V27.8H79.0554V27.5H78.7554ZM75.578 27.5H75.278V27.8H75.578V27.5ZM75.578 22.4818L75.8426 22.3404L69.904 11.2304L69.6395 11.3718L69.3749 11.5132L75.3134 22.6233L75.578 22.4818ZM69.6395 11.3718V11.6718H73.562V11.3718V11.0718H69.6395V11.3718ZM73.562 11.3718L73.2933 11.5054L77.4569 19.8763L77.7255 19.7427L77.9941 19.6091L73.8306 11.2382L73.562 11.3718ZM77.7255 19.7427L77.7046 19.4434L76.7623 19.5092L76.7832 19.8084L76.8041 20.1077L77.7464 20.042L77.7255 19.7427ZM76.7832 19.8084L77.0531 19.9395L81.1509 11.5029L80.881 11.3718L80.6111 11.2407L76.5134 19.6774L76.7832 19.8084ZM80.881 11.3718V11.6718H84.8035V11.3718V11.0718H80.881V11.3718ZM84.8035 11.3718L84.54 11.2284L78.4919 22.3384L78.7554 22.4818L79.0189 22.6253L85.067 11.5152L84.8035 11.3718ZM78.7554 22.4818H78.4554V27.5H78.7554H79.0554V22.4818H78.7554ZM78.7554 27.5V27.2H75.578V27.5V27.8H78.7554V27.5ZM75.578 27.5H75.878V22.4818H75.578H75.278V27.5H75.578ZM95.0485 15.2724L94.9044 15.5355L95.1785 15.6856L95.3173 15.4056L95.0485 15.2724ZM93.1639 14.4397L93.0651 14.7229L93.0671 14.7236L93.1639 14.4397ZM89.7674 14.5273L89.5947 14.282L89.7674 14.5273ZM89.614 16.8063L89.3967 17.0132L89.4018 17.0185L89.4071 17.0235L89.614 16.8063ZM90.7754 17.5952L90.6412 17.8635L90.6445 17.8651L90.7754 17.5952ZM92.2655 18.2307L92.3708 17.9498L92.3699 17.9494L92.2655 18.2307ZM93.646 18.8662L93.5017 19.1294L93.5119 19.1345L93.646 18.8662ZM94.8951 19.7646L94.6829 19.9768L94.6873 19.981L94.8951 19.7646ZM95.7716 21.1013L95.4936 21.214L95.4947 21.2167L95.7716 21.1013ZM95.4648 25.3306L95.7216 25.4857L95.4648 25.3306ZM93.6022 27.0398L93.7402 27.3062L93.7439 27.3043L93.6022 27.0398ZM88.6936 27.5L88.6321 27.7937L88.6399 27.7952L88.6936 27.5ZM86.831 26.9303L86.7128 27.2061L86.7184 27.2083L86.831 26.9303ZM85.056 25.9442L84.795 25.7963L84.6599 26.0348L84.8852 26.1908L85.056 25.9442ZM86.4585 23.4679L86.6355 23.2257L86.3634 23.027L86.1974 23.3201L86.4585 23.4679ZM87.6856 24.213L87.5513 24.4815L87.5621 24.4864L87.6856 24.213ZM89.0442 24.6951L89.1192 24.4046L89.0442 24.6951ZM91.4328 24.717L91.5108 25.0068L91.518 25.0047L91.4328 24.717ZM92.397 24.1473L92.1847 23.935L92.1789 23.9413L92.397 24.1473ZM92.4627 22.1751L92.2258 22.3594L92.2322 22.3671L92.4627 22.1751ZM91.6081 21.4519L91.4491 21.7064L91.4537 21.7092L91.6081 21.4519ZM90.4467 20.8822L90.3395 21.1624L90.3403 21.1627L90.4467 20.8822ZM88.9128 20.2248L88.7846 20.4961L88.9128 20.2248ZM87.4226 19.3263L87.2342 19.56L87.2426 19.5663L87.4226 19.3263ZM86.3051 17.9896L86.038 18.1267L86.0428 18.1353L86.3051 17.9896ZM86.5023 13.585L86.2469 13.4275L86.2446 13.4315L86.5023 13.585ZM88.2773 11.9635L88.4155 12.2297L88.4195 12.2276L88.2773 11.9635ZM90.9069 11.2841V10.9839L90.8936 10.9844L90.9069 11.2841ZM94.0624 11.7443L93.9554 12.0246L93.957 12.0252L94.0624 11.7443ZM96.2537 12.84L96.5225 12.9732L96.6403 12.7355L96.4188 12.5895L96.2537 12.84ZM95.0485 15.2724L95.1926 15.0092C94.5643 14.6652 93.9203 14.3806 93.2607 14.1557L93.1639 14.4397L93.0671 14.7236C93.6931 14.937 94.3055 15.2075 94.9044 15.5355L95.0485 15.2724ZM93.1639 14.4397L93.2627 14.1564C92.6089 13.9283 91.9837 13.811 91.389 13.811V14.111V14.411C91.9045 14.411 92.4626 14.5127 93.0651 14.7229L93.1639 14.4397ZM91.389 14.111V13.811C90.6657 13.811 90.057 13.9567 89.5947 14.282L89.7674 14.5273L89.94 14.7727C90.2666 14.5428 90.7389 14.411 91.389 14.411V14.111ZM89.7674 14.5273L89.5947 14.282C89.1075 14.6248 88.8757 15.1406 88.8757 15.7764H89.1757H89.4757C89.4757 15.3019 89.6384 14.9849 89.94 14.7727L89.7674 14.5273ZM89.1757 15.7764H88.8757C88.8757 16.2424 89.0581 16.6576 89.3967 17.0132L89.614 16.8063L89.8312 16.5994C89.5855 16.3414 89.4757 16.07 89.4757 15.7764H89.1757ZM89.614 16.8063L89.4071 17.0235C89.7398 17.3404 90.153 17.6194 90.6412 17.8635L90.7754 17.5952L90.9095 17.3268C90.4627 17.1034 90.1017 16.8565 89.8209 16.5891L89.614 16.8063ZM90.7754 17.5952L90.6445 17.8651C91.1354 18.1031 91.6409 18.3187 92.161 18.5119L92.2655 18.2307L92.3699 17.9494C91.8675 17.7628 91.3796 17.5547 90.9063 17.3252L90.7754 17.5952ZM92.2655 18.2307L92.1601 18.5116C92.6138 18.6817 93.061 18.8875 93.5018 19.1292L93.646 18.8662L93.7903 18.6031C93.3253 18.3481 92.8521 18.1303 92.3708 17.9498L92.2655 18.2307ZM93.646 18.8662L93.5119 19.1345C93.9509 19.354 94.3408 19.6346 94.683 19.9767L94.8951 19.7646L95.1072 19.5525C94.7189 19.1642 94.2762 18.8458 93.7802 18.5978L93.646 18.8662ZM94.8951 19.7646L94.6873 19.981C95.0178 20.2983 95.2879 20.7067 95.4936 21.214L95.7716 21.1013L96.0496 20.9886C95.817 20.4149 95.5028 19.9322 95.1028 19.5482L94.8951 19.7646ZM95.7716 21.1013L95.4947 21.2167C95.6942 21.6955 95.8003 22.3036 95.8003 23.0516H96.1003H96.4003C96.4003 22.2511 96.2873 21.559 96.0485 20.9859L95.7716 21.1013ZM96.1003 23.0516H95.8003C95.8003 23.8149 95.6035 24.521 95.2081 25.1754L95.4648 25.3306L95.7216 25.4857C96.1735 24.7378 96.4003 23.9245 96.4003 23.0516H96.1003ZM95.4648 25.3306L95.2081 25.1754C94.8158 25.8247 94.2376 26.3591 93.4605 26.7754L93.6022 27.0398L93.7439 27.3043C94.603 26.844 95.2665 26.2389 95.7216 25.4857L95.4648 25.3306ZM93.6022 27.0398L93.4642 26.7734C92.6996 27.1694 91.742 27.3753 90.5782 27.3753V27.6753V27.9753C91.8102 27.9753 92.8686 27.7576 93.7402 27.3062L93.6022 27.0398ZM90.5782 27.6753V27.3753C89.9837 27.3753 89.3735 27.3187 88.7473 27.2048L88.6936 27.5L88.6399 27.7952C89.2993 27.915 89.9455 27.9753 90.5782 27.9753V27.6753ZM88.6936 27.5L88.7551 27.2064C88.1449 27.0786 87.5411 26.894 86.9435 26.6522L86.831 26.9303L86.7184 27.2083C87.348 27.4632 87.986 27.6584 88.6322 27.7936L88.6936 27.5ZM86.831 26.9303L86.9492 26.6545C86.3547 26.3998 85.7806 26.0809 85.2268 25.6975L85.056 25.9442L84.8852 26.1908C85.4709 26.5963 86.0801 26.9348 86.7128 27.206L86.831 26.9303ZM85.056 25.9442L85.317 26.092L86.7195 23.6158L86.4585 23.4679L86.1974 23.3201L84.795 25.7963L85.056 25.9442ZM86.4585 23.4679L86.2815 23.7102C86.6754 23.998 87.0988 24.255 87.5514 24.4813L87.6856 24.213L87.8198 23.9447C87.3959 23.7327 87.0012 23.493 86.6355 23.2257L86.4585 23.4679ZM87.6856 24.213L87.5621 24.4864C88.0297 24.6976 88.4988 24.8642 88.9693 24.9856L89.0442 24.6951L89.1192 24.4046C88.6839 24.2923 88.2473 24.1375 87.8091 23.9396L87.6856 24.213ZM89.0442 24.6951L88.9693 24.9856C89.4412 25.1074 89.8831 25.1704 90.2933 25.1704V24.8704V24.5704C89.9438 24.5704 89.553 24.5166 89.1192 24.4046L89.0442 24.6951ZM90.2933 24.8704V25.1704C90.7004 25.1704 91.1064 25.1156 91.5108 25.0067L91.4328 24.717L91.3548 24.4273C90.9995 24.523 90.6459 24.5704 90.2933 24.5704V24.8704ZM91.4328 24.717L91.518 25.0047C91.9561 24.8749 92.3256 24.6597 92.6151 24.3533L92.397 24.1473L92.1789 23.9413C91.9716 24.1607 91.6984 24.3254 91.3476 24.4294L91.4328 24.717ZM92.397 24.1473L92.6091 24.3594C92.9419 24.0266 93.0914 23.5771 93.0914 23.0516H92.7914H92.4914C92.4914 23.4611 92.3779 23.742 92.1848 23.9351L92.397 24.1473ZM92.7914 23.0516H93.0914C93.0914 22.6552 92.9541 22.2961 92.6932 21.983L92.4627 22.1751L92.2322 22.3671C92.4096 22.58 92.4914 22.8052 92.4914 23.0516H92.7914ZM92.4627 22.1751L92.6995 21.9909C92.4669 21.6918 92.151 21.4278 91.7624 21.1947L91.6081 21.4519L91.4537 21.7092C91.7957 21.9143 92.0495 22.1324 92.2259 22.3592L92.4627 22.1751ZM91.6081 21.4519L91.7671 21.1975C91.3983 20.9671 90.9934 20.7687 90.5531 20.6017L90.4467 20.8822L90.3403 21.1627C90.7473 21.3171 91.1166 21.4985 91.4491 21.7063L91.6081 21.4519ZM90.4467 20.8822L90.5538 20.602C90.0648 20.415 89.5605 20.1989 89.0409 19.9535L88.9128 20.2248L88.7846 20.4961C89.3168 20.7474 89.8351 20.9695 90.3395 21.1624L90.4467 20.8822ZM88.9128 20.2248L89.0409 19.9535C88.5333 19.7138 88.054 19.4249 87.6026 19.0863L87.4226 19.3263L87.2426 19.5663C87.7262 19.929 88.2403 20.239 88.7846 20.4961L88.9128 20.2248ZM87.4226 19.3263L87.611 19.0928C87.1892 18.7527 86.8414 18.3373 86.5673 17.8439L86.3051 17.9896L86.0428 18.1353C86.3531 18.6938 86.7503 19.1696 87.2343 19.5599L87.4226 19.3263ZM86.3051 17.9896L86.5719 17.8526C86.3213 17.3645 86.1887 16.7567 86.1887 16.0174H85.8887H85.5887C85.5887 16.8266 85.7337 17.5337 86.0382 18.1267L86.3051 17.9896ZM85.8887 16.0174H86.1887C86.1887 15.1272 86.383 14.3714 86.76 13.7386L86.5023 13.585L86.2446 13.4315C85.8034 14.1719 85.5887 15.0377 85.5887 16.0174H85.8887ZM86.5023 13.585L86.7576 13.7426C87.151 13.105 87.7009 12.6007 88.4155 12.2297L88.2773 11.9635L88.139 11.6972C87.3343 12.1151 86.7009 12.6919 86.247 13.4275L86.5023 13.585ZM88.2773 11.9635L88.4195 12.2276C89.1337 11.843 89.9649 11.626 90.9201 11.5839L90.9069 11.2841L90.8936 10.9844C89.862 11.0299 88.9401 11.2658 88.135 11.6993L88.2773 11.9635ZM90.9069 11.2841V11.5841C92.1873 11.5841 93.1989 11.7357 93.9554 12.0246L94.0624 11.7443L94.1694 11.4641C93.3189 11.1393 92.2268 10.9841 90.9069 10.9841V11.2841ZM94.0624 11.7443L93.957 12.0252C94.7569 12.3252 95.4669 12.6807 96.0886 13.0905L96.2537 12.84L96.4188 12.5895C95.755 12.152 95.004 11.777 94.1677 11.4634L94.0624 11.7443ZM96.2537 12.84L95.9849 12.7068L94.7797 15.1392L95.0485 15.2724L95.3173 15.4056L96.5225 12.9732L96.2537 12.84ZM97.3934 27.5L97.1182 27.3806L96.9361 27.8H97.3934V27.5ZM104.669 10.7363V10.4363H104.472L104.393 10.6169L104.669 10.7363ZM104.844 10.7363L105.119 10.6169L105.041 10.4363H104.844V10.7363ZM112.119 27.5V27.8H112.576L112.394 27.3806L112.119 27.5ZM108.438 27.5L108.159 27.61L108.233 27.8H108.438V27.5ZM103.792 15.7106L103.622 15.4632L103.425 15.5983L103.513 15.8206L103.792 15.7106ZM106.093 14.1329L106.37 14.2482L106.76 13.3119L105.923 13.8855L106.093 14.1329ZM100.527 27.5V27.8H100.727L100.804 27.6153L100.527 27.5ZM102.368 21.6711V21.3711H102.159L102.086 21.5672L102.368 21.6711ZM107.211 21.6711L107.487 21.5553L107.41 21.3711H107.211V21.6711ZM108.328 24.3445V24.6445H108.779L108.605 24.2288L108.328 24.3445ZM101.382 24.3445L101.1 24.2407L100.951 24.6445H101.382V24.3445ZM97.3934 27.5L97.6686 27.6194L104.944 10.8557L104.669 10.7363L104.393 10.6169L97.1182 27.3806L97.3934 27.5ZM104.669 10.7363V11.0363H104.844V10.7363V10.4363H104.669V10.7363ZM104.844 10.7363L104.569 10.8557L111.844 27.6194L112.119 27.5L112.394 27.3806L105.119 10.6169L104.844 10.7363ZM112.119 27.5V27.2H108.438V27.5V27.8H112.119V27.5ZM108.438 27.5L108.717 27.39L104.071 15.6006L103.792 15.7106L103.513 15.8206L108.159 27.61L108.438 27.5ZM103.792 15.7106L103.962 15.9581L106.263 14.3803L106.093 14.1329L105.923 13.8855L103.622 15.4632L103.792 15.7106ZM106.093 14.1329L105.816 14.0176L100.25 27.3847L100.527 27.5L100.804 27.6153L106.37 14.2482L106.093 14.1329ZM100.527 27.5V27.2H97.3934V27.5V27.8H100.527V27.5ZM102.368 21.6711V21.9711H107.211V21.6711V21.3711H102.368V21.6711ZM107.211 21.6711L106.934 21.7868L108.051 24.4602L108.328 24.3445L108.605 24.2288L107.487 21.5553L107.211 21.6711ZM108.328 24.3445V24.0445H101.382V24.3445V24.6445H108.328V24.3445ZM101.382 24.3445L101.663 24.4483L102.649 21.7749L102.368 21.6711L102.086 21.5672L101.1 24.2407L101.382 24.3445ZM123.214 12.4017L123.043 12.6485L123.046 12.6502L123.214 12.4017ZM123.959 17.9239L123.717 17.7456L123.717 17.7465L123.959 17.9239ZM121.965 19.414L122.073 19.6939L122.075 19.6929L121.965 19.414ZM119.094 19.8961L118.806 19.9809L118.87 20.1961H119.094V19.8961ZM118.59 18.1868V17.8868H118.189L118.302 18.2717L118.59 18.1868ZM122.118 18.7347L122.017 19.0172L122.018 19.0176L122.118 18.7347ZM124.572 20.3124L124.346 20.5097L124.348 20.512L124.572 20.3124ZM124.989 24.98L124.723 24.8408L124.722 24.8432L124.989 24.98ZM123.718 26.4482L123.889 26.6946L123.89 26.6936L123.718 26.4482ZM121.921 27.259L121.99 27.5508L121.996 27.5492L121.921 27.259ZM114.47 27.5H114.17V27.8H114.47V27.5ZM114.47 11.3718V11.0718H114.17V11.3718H114.47ZM120.957 17.398L120.723 17.2094L120.719 17.215L120.957 17.398ZM120.847 14.856L120.665 15.0949L120.67 15.0982L120.847 14.856ZM117.648 14.4397V14.1397H117.348V14.4397H117.648ZM117.648 17.9677H117.348V18.2677H117.648V17.9677ZM120.957 24.3664L121.045 24.6533L121.055 24.6499L120.957 24.3664ZM121.855 23.7747L122.086 23.9669L122.09 23.9606L121.855 23.7747ZM121.789 21.693L121.583 21.9112L121.59 21.9172L121.789 21.693ZM120.759 21.189L120.686 21.4803L120.699 21.4827L120.759 21.189ZM117.648 21.0356V20.7356H117.348V21.0356H117.648ZM117.648 24.5417H117.348V24.8417H117.648V24.5417ZM119.203 11.3718V11.6718C120.846 11.6718 122.116 12.0077 123.043 12.6485L123.214 12.4017L123.384 12.1549C122.325 11.4225 120.921 11.0718 119.203 11.0718V11.3718ZM123.214 12.4017L123.046 12.6502C123.945 13.259 124.404 14.1673 124.404 15.4258H124.704H125.004C125.004 13.9962 124.469 12.8885 123.382 12.1532L123.214 12.4017ZM124.704 15.4258H124.404C124.404 16.3674 124.169 17.1344 123.717 17.7456L123.959 17.9239L124.2 18.1022C124.742 17.3694 125.004 16.4709 125.004 15.4258H124.704ZM123.959 17.9239L123.717 17.7465C123.272 18.3531 122.655 18.8174 121.854 19.1351L121.965 19.414L122.075 19.6929C122.969 19.3386 123.681 18.8094 124.201 18.1013L123.959 17.9239ZM121.965 19.414L121.857 19.1341C121.065 19.4397 120.146 19.5961 119.094 19.5961V19.8961V20.1961C120.204 20.1961 121.199 20.031 122.073 19.6939L121.965 19.414ZM119.094 19.8961L119.382 19.8112L118.878 18.102L118.59 18.1868L118.302 18.2717L118.806 19.9809L119.094 19.8961ZM118.59 18.1868V18.4868C119.892 18.4868 121.033 18.6658 122.017 19.0172L122.118 18.7347L122.219 18.4521C121.157 18.0731 119.946 17.8868 118.59 17.8868V18.1868ZM122.118 18.7347L122.018 19.0176C123.017 19.3692 123.788 19.8694 124.346 20.5096L124.572 20.3124L124.798 20.1152C124.159 19.3823 123.294 18.8306 122.218 18.4517L122.118 18.7347ZM124.572 20.3124L124.348 20.512C124.895 21.1259 125.171 21.8644 125.171 22.7448H125.471H125.771C125.771 21.726 125.447 20.843 124.796 20.1128L124.572 20.3124ZM125.471 22.7448H125.171C125.171 23.5854 125.017 24.28 124.723 24.8408L124.989 24.98L125.254 25.1192C125.603 24.4527 125.771 23.6573 125.771 22.7448H125.471ZM124.989 24.98L124.722 24.8432C124.437 25.3996 124.045 25.8514 123.545 26.2027L123.718 26.4482L123.89 26.6936C124.471 26.2852 124.927 25.7582 125.256 25.1167L124.989 24.98ZM123.718 26.4482L123.546 26.2017C123.052 26.5452 122.486 26.8015 121.845 26.9687L121.921 27.259L121.996 27.5492C122.7 27.3658 123.331 27.0816 123.889 26.6946L123.718 26.4482ZM121.921 27.259L121.851 26.9672C121.203 27.1222 120.532 27.2 119.839 27.2V27.5V27.8C120.577 27.8 121.295 27.7171 121.99 27.5507L121.921 27.259ZM119.839 27.5V27.2H114.47V27.5V27.8H119.839V27.5ZM114.47 27.5H114.77V11.3718H114.47H114.17V27.5H114.47ZM114.47 11.3718V11.6718H119.203V11.3718V11.0718H114.47V11.3718ZM119.576 17.9677V18.2677C120.266 18.2677 120.829 18.0563 121.194 17.5809L120.957 17.398L120.719 17.215C120.5 17.4993 120.142 17.6677 119.576 17.6677V17.9677ZM120.957 17.398L121.19 17.5865C121.539 17.154 121.717 16.6567 121.717 16.1051H121.417H121.117C121.117 16.5176 120.987 16.8823 120.723 17.2095L120.957 17.398ZM121.417 16.1051H121.717C121.717 15.4738 121.496 14.9585 121.024 14.6138L120.847 14.856L120.67 15.0982C120.958 15.3087 121.117 15.6261 121.117 16.1051H121.417ZM120.847 14.856L121.028 14.6172C120.595 14.2876 120.027 14.1397 119.357 14.1397V14.4397V14.7397C119.943 14.7397 120.369 14.8693 120.665 15.0949L120.847 14.856ZM119.357 14.4397V14.1397H117.648V14.4397V14.7397H119.357V14.4397ZM117.648 14.4397H117.348V17.9677H117.648H117.948V14.4397H117.648ZM117.648 17.9677V18.2677H119.576V17.9677V17.6677H117.648V17.9677ZM119.686 24.5417V24.8417C120.178 24.8417 120.632 24.7802 121.045 24.6531L120.957 24.3664L120.868 24.0797C120.522 24.1863 120.128 24.2417 119.686 24.2417V24.5417ZM120.957 24.3664L121.055 24.6499C121.477 24.5037 121.826 24.2785 122.085 23.9668L121.855 23.7747L121.625 23.5827C121.446 23.7969 121.196 23.9661 120.858 24.0829L120.957 24.3664ZM121.855 23.7747L122.09 23.9606C122.358 23.622 122.484 23.2103 122.484 22.7448H122.184H121.884C121.884 23.0975 121.79 23.3723 121.62 23.5888L121.855 23.7747ZM122.184 22.7448H122.484C122.484 22.2213 122.335 21.7765 121.989 21.4687L121.789 21.693L121.59 21.9172C121.77 22.0769 121.884 22.3333 121.884 22.7448H122.184ZM121.789 21.693L121.995 21.4749C121.684 21.1814 121.287 20.9919 120.82 20.8952L120.759 21.189L120.699 21.4827C121.078 21.5614 121.368 21.7078 121.583 21.9111L121.789 21.693ZM120.759 21.189L120.832 20.8979C120.398 20.7893 119.942 20.7356 119.466 20.7356V21.0356V21.3356C119.897 21.3356 120.303 21.3841 120.687 21.48L120.759 21.189ZM119.466 21.0356V20.7356H117.648V21.0356V21.3356H119.466V21.0356ZM117.648 21.0356H117.348V24.5417H117.648H117.948V21.0356H117.648ZM117.648 24.5417V24.8417H119.686V24.5417V24.2417H117.648V24.5417ZM126.283 27.5L126.008 27.3806L125.826 27.8H126.283V27.5ZM133.558 10.7363V10.4363H133.361L133.283 10.6169L133.558 10.7363ZM133.734 10.7363L134.009 10.6169L133.93 10.4363H133.734V10.7363ZM141.009 27.5V27.8H141.466L141.284 27.3806L141.009 27.5ZM137.327 27.5L137.048 27.61L137.123 27.8H137.327V27.5ZM132.682 15.7106L132.512 15.4632L132.315 15.5983L132.403 15.8206L132.682 15.7106ZM134.983 14.1329L135.26 14.2482L135.649 13.3119L134.813 13.8855L134.983 14.1329ZM129.417 27.5V27.8H129.617L129.694 27.6153L129.417 27.5ZM131.257 21.6711V21.3711H131.048L130.976 21.5672L131.257 21.6711ZM136.1 21.6711L136.377 21.5553L136.3 21.3711H136.1V21.6711ZM137.218 24.3445V24.6445H137.668L137.495 24.2288L137.218 24.3445ZM130.271 24.3445L129.99 24.2407L129.841 24.6445H130.271V24.3445ZM126.283 27.5L126.558 27.6194L133.833 10.8557L133.558 10.7363L133.283 10.6169L126.008 27.3806L126.283 27.5ZM133.558 10.7363V11.0363H133.734V10.7363V10.4363H133.558V10.7363ZM133.734 10.7363L133.458 10.8557L140.734 27.6194L141.009 27.5L141.284 27.3806L134.009 10.6169L133.734 10.7363ZM141.009 27.5V27.2H137.327V27.5V27.8H141.009V27.5ZM137.327 27.5L137.606 27.39L132.961 15.6006L132.682 15.7106L132.403 15.8206L137.048 27.61L137.327 27.5ZM132.682 15.7106L132.851 15.9581L135.152 14.3803L134.983 14.1329L134.813 13.8855L132.512 15.4632L132.682 15.7106ZM134.983 14.1329L134.706 14.0176L129.14 27.3847L129.417 27.5L129.694 27.6153L135.26 14.2482L134.983 14.1329ZM129.417 27.5V27.2H126.283V27.5V27.8H129.417V27.5ZM131.257 21.6711V21.9711H136.1V21.6711V21.3711H131.257V21.6711ZM136.1 21.6711L135.823 21.7868L136.941 24.4602L137.218 24.3445L137.495 24.2288L136.377 21.5553L136.1 21.6711ZM137.218 24.3445V24.0445H130.271V24.3445V24.6445H137.218V24.3445ZM130.271 24.3445L130.553 24.4483L131.539 21.7749L131.257 21.6711L130.976 21.5672L129.99 24.2407L130.271 24.3445ZM140.959 11.3718V11.0718H140.659V11.3718H140.959ZM151.828 11.3718H152.128V11.0718H151.828V11.3718ZM151.828 14.4397V14.7397H152.128V14.4397H151.828ZM147.905 14.4397V14.1397H147.605V14.4397H147.905ZM147.905 27.5V27.8H148.205V27.5H147.905ZM144.728 27.5H144.428V27.8H144.728V27.5ZM144.728 14.4397H145.028V14.1397H144.728V14.4397ZM140.959 14.4397H140.659V14.7397H140.959V14.4397ZM140.959 11.3718V11.6718H151.828V11.3718V11.0718H140.959V11.3718ZM151.828 11.3718H151.528V14.4397H151.828H152.128V11.3718H151.828ZM151.828 14.4397V14.1397H147.905V14.4397V14.7397H151.828V14.4397ZM147.905 14.4397H147.605V27.5H147.905H148.205V14.4397H147.905ZM147.905 27.5V27.2H144.728V27.5V27.8H147.905V27.5ZM144.728 27.5H145.028V14.4397H144.728H144.428V27.5H144.728ZM144.728 14.4397V14.1397H140.959V14.4397V14.7397H144.728V14.4397ZM140.959 14.4397H141.259V11.3718H140.959H140.659V14.4397H140.959Z" fill="url(#paint3_linear_1072_39766)" mask="url(#path-3-outside-1_1072_39766)"/>
<mask id="path-5-inside-2_1072_39766" fill="white">
<path d="M163.592 0H310.592V44H163.592V0Z"/>
</mask>
<path d="M163.592 44H164.592V0H163.592H162.592V44H163.592Z" fill="#D5D7DA" mask="url(#path-5-inside-2_1072_39766)"/>
<path d="M173.713 18L176.65 9.805H177.926L180.863 18H179.708L179.037 16.075H175.539L174.868 18H173.713ZM175.88 15.085H178.696L177.134 10.586H177.442L175.88 15.085ZM181.774 18V9.673H182.797V18H181.774ZM184.385 18V9.673H185.408V18H184.385ZM187.072 15.503V14.568H191.197V15.503H187.072ZM192.85 18V12.071H193.873V18H192.85ZM192.85 11.125V9.805H193.873V11.125H192.85ZM195.46 18V12.071H196.461V13.226L196.296 13.127C196.443 12.753 196.677 12.4633 197 12.258C197.33 12.0453 197.715 11.939 198.155 11.939C198.58 11.939 198.958 12.0343 199.288 12.225C199.625 12.4157 199.889 12.6797 200.08 13.017C200.278 13.3543 200.377 13.7357 200.377 14.161V18H199.343V14.491C199.343 14.161 199.284 13.8823 199.167 13.655C199.05 13.4277 198.881 13.2517 198.661 13.127C198.448 12.995 198.203 12.929 197.924 12.929C197.645 12.929 197.396 12.995 197.176 13.127C196.963 13.2517 196.795 13.4313 196.67 13.666C196.545 13.8933 196.483 14.1683 196.483 14.491V18H195.46ZM201.918 15.503V14.568H206.043V15.503H201.918ZM210.511 18.132C209.939 18.132 209.422 18 208.96 17.736C208.498 17.4647 208.132 17.0943 207.86 16.625C207.589 16.1557 207.453 15.624 207.453 15.03C207.453 14.436 207.585 13.908 207.849 13.446C208.121 12.984 208.487 12.6173 208.949 12.346C209.411 12.0747 209.932 11.939 210.511 11.939C211.083 11.939 211.6 12.0747 212.062 12.346C212.524 12.61 212.887 12.973 213.151 13.435C213.423 13.897 213.558 14.4287 213.558 15.03C213.558 15.6313 213.419 16.1667 213.14 16.636C212.862 17.098 212.491 17.4647 212.029 17.736C211.575 18 211.069 18.132 210.511 18.132ZM210.511 17.142C210.878 17.142 211.208 17.0503 211.501 16.867C211.802 16.6837 212.037 16.4307 212.205 16.108C212.381 15.7853 212.469 15.426 212.469 15.03C212.469 14.6267 212.381 14.271 212.205 13.963C212.037 13.6477 211.802 13.3983 211.501 13.215C211.208 13.0243 210.878 12.929 210.511 12.929C210.137 12.929 209.8 13.0243 209.499 13.215C209.206 13.3983 208.971 13.6477 208.795 13.963C208.619 14.271 208.531 14.6267 208.531 15.03C208.531 15.426 208.619 15.7853 208.795 16.108C208.971 16.4307 209.206 16.6837 209.499 16.867C209.8 17.0503 210.137 17.142 210.511 17.142ZM214.893 18V12.071H215.894V13.226L215.729 13.127C215.875 12.753 216.11 12.4633 216.433 12.258C216.763 12.0453 217.148 11.939 217.588 11.939C218.013 11.939 218.391 12.0343 218.721 12.225C219.058 12.4157 219.322 12.6797 219.513 13.017C219.711 13.3543 219.81 13.7357 219.81 14.161V18H218.776V14.491C218.776 14.161 218.717 13.8823 218.6 13.655C218.482 13.4277 218.314 13.2517 218.094 13.127C217.881 12.995 217.635 12.929 217.357 12.929C217.078 12.929 216.829 12.995 216.609 13.127C216.396 13.2517 216.227 13.4313 216.103 13.666C215.978 13.8933 215.916 14.1683 215.916 14.491V18H214.893ZM224.001 18.132C223.429 18.132 222.92 17.9963 222.472 17.725C222.025 17.4537 221.673 17.0833 221.416 16.614C221.16 16.1373 221.031 15.6057 221.031 15.019C221.031 14.425 221.156 13.897 221.405 13.435C221.662 12.973 222.007 12.61 222.439 12.346C222.879 12.0747 223.371 11.939 223.913 11.939C224.353 11.939 224.742 12.0197 225.079 12.181C225.424 12.335 225.714 12.5477 225.948 12.819C226.19 13.083 226.374 13.3873 226.498 13.732C226.63 14.0693 226.696 14.4213 226.696 14.788C226.696 14.8687 226.689 14.9603 226.674 15.063C226.667 15.1583 226.656 15.25 226.641 15.338H221.779V14.458H226.047L225.563 14.854C225.629 14.4727 225.593 14.1317 225.453 13.831C225.314 13.5303 225.109 13.292 224.837 13.116C224.566 12.94 224.258 12.852 223.913 12.852C223.569 12.852 223.253 12.94 222.967 13.116C222.681 13.292 222.458 13.545 222.296 13.875C222.142 14.1977 222.08 14.5827 222.109 15.03C222.08 15.4627 222.146 15.844 222.307 16.174C222.476 16.4967 222.711 16.7497 223.011 16.933C223.319 17.109 223.653 17.197 224.012 17.197C224.408 17.197 224.742 17.1053 225.013 16.922C225.285 16.7387 225.505 16.504 225.673 16.218L226.531 16.658C226.414 16.9293 226.231 17.1787 225.981 17.406C225.739 17.626 225.45 17.802 225.112 17.934C224.782 18.066 224.412 18.132 224.001 18.132ZM233.826 18.132C233.246 18.132 232.711 18.0293 232.22 17.824C231.736 17.6113 231.31 17.3143 230.944 16.933C230.584 16.5517 230.306 16.1043 230.108 15.591C229.91 15.0777 229.811 14.5167 229.811 13.908C229.811 13.292 229.91 12.7273 230.108 12.214C230.306 11.7007 230.584 11.2533 230.944 10.872C231.303 10.4907 231.728 10.1973 232.22 9.992C232.711 9.77933 233.246 9.673 233.826 9.673C234.39 9.673 234.896 9.772 235.344 9.97C235.798 10.168 236.18 10.4247 236.488 10.74C236.803 11.0553 237.027 11.3927 237.159 11.752L236.169 12.203C235.978 11.7483 235.681 11.3817 235.278 11.103C234.874 10.817 234.39 10.674 233.826 10.674C233.254 10.674 232.744 10.8097 232.297 11.081C231.857 11.3523 231.512 11.73 231.263 12.214C231.013 12.698 230.889 13.2627 230.889 13.908C230.889 14.546 231.013 15.107 231.263 15.591C231.512 16.075 231.857 16.4527 232.297 16.724C232.744 16.9953 233.254 17.131 233.826 17.131C234.39 17.131 234.874 16.9917 235.278 16.713C235.681 16.427 235.978 16.0567 236.169 15.602L237.159 16.053C237.027 16.4123 236.803 16.7497 236.488 17.065C236.18 17.3803 235.798 17.637 235.344 17.835C234.896 18.033 234.39 18.132 233.826 18.132ZM238.504 18V9.673H239.527V18H238.504ZM243.93 18.132C243.358 18.132 242.841 18 242.379 17.736C241.917 17.4647 241.551 17.0943 241.279 16.625C241.008 16.1557 240.872 15.624 240.872 15.03C240.872 14.436 241.004 13.908 241.268 13.446C241.54 12.984 241.906 12.6173 242.368 12.346C242.83 12.0747 243.351 11.939 243.93 11.939C244.502 11.939 245.019 12.0747 245.481 12.346C245.943 12.61 246.306 12.973 246.57 13.435C246.842 13.897 246.977 14.4287 246.977 15.03C246.977 15.6313 246.838 16.1667 246.559 16.636C246.281 17.098 245.91 17.4647 245.448 17.736C244.994 18 244.488 18.132 243.93 18.132ZM243.93 17.142C244.297 17.142 244.627 17.0503 244.92 16.867C245.221 16.6837 245.456 16.4307 245.624 16.108C245.8 15.7853 245.888 15.426 245.888 15.03C245.888 14.6267 245.8 14.271 245.624 13.963C245.456 13.6477 245.221 13.3983 244.92 13.215C244.627 13.0243 244.297 12.929 243.93 12.929C243.556 12.929 243.219 13.0243 242.918 13.215C242.625 13.3983 242.39 13.6477 242.214 13.963C242.038 14.271 241.95 14.6267 241.95 15.03C241.95 15.426 242.038 15.7853 242.214 16.108C242.39 16.4307 242.625 16.6837 242.918 16.867C243.219 17.0503 243.556 17.142 243.93 17.142ZM250.413 18.132C249.987 18.132 249.602 18.033 249.258 17.835C248.92 17.637 248.656 17.362 248.466 17.01C248.282 16.6507 248.191 16.24 248.191 15.778V12.071H249.214V15.668C249.214 15.9613 249.272 16.218 249.39 16.438C249.514 16.658 249.683 16.8303 249.896 16.955C250.116 17.0797 250.365 17.142 250.644 17.142C250.922 17.142 251.168 17.0797 251.381 16.955C251.601 16.8303 251.769 16.6507 251.887 16.416C252.011 16.1813 252.074 15.9027 252.074 15.58V12.071H253.108V18H252.107V16.845L252.272 16.944C252.132 17.318 251.894 17.6113 251.557 17.824C251.227 18.0293 250.845 18.132 250.413 18.132ZM257.387 18.132C256.83 18.132 256.328 17.9963 255.88 17.725C255.44 17.4537 255.092 17.0833 254.835 16.614C254.579 16.1447 254.45 15.6203 254.45 15.041C254.45 14.447 254.579 13.919 254.835 13.457C255.092 12.9877 255.44 12.6173 255.88 12.346C256.328 12.0747 256.83 11.939 257.387 11.939C257.879 11.939 258.315 12.0453 258.696 12.258C259.078 12.4633 259.378 12.742 259.598 13.094L259.433 13.347V9.673H260.467V18H259.466V16.735L259.598 16.911C259.393 17.2997 259.092 17.6003 258.696 17.813C258.308 18.0257 257.871 18.132 257.387 18.132ZM257.475 17.142C257.849 17.142 258.183 17.0503 258.476 16.867C258.77 16.6837 259.001 16.4343 259.169 16.119C259.345 15.7963 259.433 15.437 259.433 15.041C259.433 14.6377 259.345 14.2783 259.169 13.963C259.001 13.6403 258.77 13.3873 258.476 13.204C258.183 13.0207 257.849 12.929 257.475 12.929C257.109 12.929 256.775 13.0243 256.474 13.215C256.181 13.3983 255.95 13.6477 255.781 13.963C255.613 14.271 255.528 14.6303 255.528 15.041C255.528 15.437 255.613 15.7963 255.781 16.119C255.95 16.4343 256.181 16.6837 256.474 16.867C256.768 17.0503 257.101 17.142 257.475 17.142ZM264.073 18V9.805H267.516C268.007 9.805 268.429 9.893 268.781 10.069C269.14 10.245 269.415 10.4943 269.606 10.817C269.804 11.1323 269.903 11.51 269.903 11.95C269.903 12.3533 269.797 12.72 269.584 13.05C269.379 13.3727 269.074 13.6257 268.671 13.809L268.66 13.402C269.012 13.534 269.302 13.71 269.529 13.93C269.764 14.1427 269.94 14.392 270.057 14.678C270.174 14.9567 270.233 15.2537 270.233 15.569C270.233 16.3243 269.991 16.9183 269.507 17.351C269.023 17.7837 268.363 18 267.527 18H264.073ZM265.151 17.01H267.571C268.048 17.01 268.429 16.8817 268.715 16.625C269.001 16.3683 269.144 16.02 269.144 15.58C269.144 15.14 269.001 14.7917 268.715 14.535C268.429 14.271 268.048 14.139 267.571 14.139H265.151V17.01ZM265.151 13.171H267.494C267.89 13.171 268.209 13.0573 268.451 12.83C268.693 12.5953 268.814 12.2983 268.814 11.939C268.814 11.565 268.693 11.279 268.451 11.081C268.209 10.883 267.89 10.784 267.494 10.784H265.151V13.171ZM273.669 18.132C273.244 18.132 272.859 18.033 272.514 17.835C272.177 17.637 271.913 17.362 271.722 17.01C271.539 16.6507 271.447 16.24 271.447 15.778V12.071H272.47V15.668C272.47 15.9613 272.529 16.218 272.646 16.438C272.771 16.658 272.94 16.8303 273.152 16.955C273.372 17.0797 273.622 17.142 273.9 17.142C274.179 17.142 274.425 17.0797 274.637 16.955C274.857 16.8303 275.026 16.6507 275.143 16.416C275.268 16.1813 275.33 15.9027 275.33 15.58V12.071H276.364V18H275.363V16.845L275.528 16.944C275.389 17.318 275.151 17.6113 274.813 17.824C274.483 18.0293 274.102 18.132 273.669 18.132ZM280.072 18.132C279.478 18.132 278.961 17.9853 278.521 17.692C278.081 17.3987 277.77 17.0027 277.586 16.504L278.4 16.108C278.569 16.46 278.8 16.7387 279.093 16.944C279.387 17.1493 279.713 17.252 280.072 17.252C280.395 17.252 280.663 17.175 280.875 17.021C281.088 16.867 281.194 16.6653 281.194 16.416C281.194 16.24 281.143 16.1007 281.04 15.998C280.945 15.888 280.828 15.8037 280.688 15.745C280.549 15.679 280.421 15.6313 280.303 15.602L279.412 15.349C278.877 15.195 278.485 14.975 278.235 14.689C277.993 14.403 277.872 14.0693 277.872 13.688C277.872 13.336 277.96 13.0317 278.136 12.775C278.32 12.511 278.565 12.3057 278.873 12.159C279.189 12.0123 279.541 11.939 279.929 11.939C280.45 11.939 280.916 12.071 281.326 12.335C281.744 12.599 282.041 12.9693 282.217 13.446L281.381 13.831C281.249 13.523 281.051 13.281 280.787 13.105C280.523 12.9217 280.226 12.83 279.896 12.83C279.596 12.83 279.357 12.907 279.181 13.061C279.005 13.2077 278.917 13.3947 278.917 13.622C278.917 13.7907 278.961 13.93 279.049 14.04C279.137 14.1427 279.244 14.2233 279.368 14.282C279.493 14.3333 279.614 14.3773 279.731 14.414L280.699 14.7C281.183 14.8393 281.557 15.0557 281.821 15.349C282.093 15.6423 282.228 15.9943 282.228 16.405C282.228 16.735 282.137 17.032 281.953 17.296C281.77 17.56 281.517 17.7653 281.194 17.912C280.872 18.0587 280.498 18.132 280.072 18.132ZM283.567 18V12.071H284.59V18H283.567ZM283.567 11.125V9.805H284.59V11.125H283.567ZM286.178 18V12.071H287.179V13.226L287.014 13.127C287.16 12.753 287.395 12.4633 287.718 12.258C288.048 12.0453 288.433 11.939 288.873 11.939C289.298 11.939 289.676 12.0343 290.006 12.225C290.343 12.4157 290.607 12.6797 290.798 13.017C290.996 13.3543 291.095 13.7357 291.095 14.161V18H290.061V14.491C290.061 14.161 290.002 13.8823 289.885 13.655C289.767 13.4277 289.599 13.2517 289.379 13.127C289.166 12.995 288.92 12.929 288.642 12.929C288.363 12.929 288.114 12.995 287.894 13.127C287.681 13.2517 287.512 13.4313 287.388 13.666C287.263 13.8933 287.201 14.1683 287.201 14.491V18H286.178ZM295.287 18.132C294.715 18.132 294.205 17.9963 293.758 17.725C293.31 17.4537 292.958 17.0833 292.702 16.614C292.445 16.1373 292.317 15.6057 292.317 15.019C292.317 14.425 292.441 13.897 292.691 13.435C292.947 12.973 293.292 12.61 293.725 12.346C294.165 12.0747 294.656 11.939 295.199 11.939C295.639 11.939 296.027 12.0197 296.365 12.181C296.709 12.335 296.999 12.5477 297.234 12.819C297.476 13.083 297.659 13.3873 297.784 13.732C297.916 14.0693 297.982 14.4213 297.982 14.788C297.982 14.8687 297.974 14.9603 297.96 15.063C297.952 15.1583 297.941 15.25 297.927 15.338H293.065V14.458H297.333L296.849 14.854C296.915 14.4727 296.878 14.1317 296.739 13.831C296.599 13.5303 296.394 13.292 296.123 13.116C295.851 12.94 295.543 12.852 295.199 12.852C294.854 12.852 294.539 12.94 294.253 13.116C293.967 13.292 293.743 13.545 293.582 13.875C293.428 14.1977 293.365 14.5827 293.395 15.03C293.365 15.4627 293.431 15.844 293.593 16.174C293.761 16.4967 293.996 16.7497 294.297 16.933C294.605 17.109 294.938 17.197 295.298 17.197C295.694 17.197 296.027 17.1053 296.299 16.922C296.57 16.7387 296.79 16.504 296.959 16.218L297.817 16.658C297.699 16.9293 297.516 17.1787 297.267 17.406C297.025 17.626 296.735 17.802 296.398 17.934C296.068 18.066 295.697 18.132 295.287 18.132ZM301.438 18.132C300.844 18.132 300.327 17.9853 299.887 17.692C299.447 17.3987 299.136 17.0027 298.952 16.504L299.766 16.108C299.935 16.46 300.166 16.7387 300.459 16.944C300.753 17.1493 301.079 17.252 301.438 17.252C301.761 17.252 302.029 17.175 302.241 17.021C302.454 16.867 302.56 16.6653 302.56 16.416C302.56 16.24 302.509 16.1007 302.406 15.998C302.311 15.888 302.194 15.8037 302.054 15.745C301.915 15.679 301.787 15.6313 301.669 15.602L300.778 15.349C300.243 15.195 299.851 14.975 299.601 14.689C299.359 14.403 299.238 14.0693 299.238 13.688C299.238 13.336 299.326 13.0317 299.502 12.775C299.686 12.511 299.931 12.3057 300.239 12.159C300.555 12.0123 300.907 11.939 301.295 11.939C301.816 11.939 302.282 12.071 302.692 12.335C303.11 12.599 303.407 12.9693 303.583 13.446L302.747 13.831C302.615 13.523 302.417 13.281 302.153 13.105C301.889 12.9217 301.592 12.83 301.262 12.83C300.962 12.83 300.723 12.907 300.547 13.061C300.371 13.2077 300.283 13.3947 300.283 13.622C300.283 13.7907 300.327 13.93 300.415 14.04C300.503 14.1427 300.61 14.2233 300.734 14.282C300.859 14.3333 300.98 14.3773 301.097 14.414L302.065 14.7C302.549 14.8393 302.923 15.0557 303.187 15.349C303.459 15.6423 303.594 15.9943 303.594 16.405C303.594 16.735 303.503 17.032 303.319 17.296C303.136 17.56 302.883 17.7653 302.56 17.912C302.238 18.0587 301.864 18.132 301.438 18.132ZM307.057 18.132C306.463 18.132 305.946 17.9853 305.506 17.692C305.066 17.3987 304.754 17.0027 304.571 16.504L305.385 16.108C305.553 16.46 305.784 16.7387 306.078 16.944C306.371 17.1493 306.697 17.252 307.057 17.252C307.379 17.252 307.647 17.175 307.86 17.021C308.072 16.867 308.179 16.6653 308.179 16.416C308.179 16.24 308.127 16.1007 308.025 15.998C307.929 15.888 307.812 15.8037 307.673 15.745C307.533 15.679 307.405 15.6313 307.288 15.602L306.397 15.349C305.861 15.195 305.469 14.975 305.22 14.689C304.978 14.403 304.857 14.0693 304.857 13.688C304.857 13.336 304.945 13.0317 305.121 12.775C305.304 12.511 305.55 12.3057 305.858 12.159C306.173 12.0123 306.525 11.939 306.914 11.939C307.434 11.939 307.9 12.071 308.311 12.335C308.729 12.599 309.026 12.9693 309.202 13.446L308.366 13.831C308.234 13.523 308.036 13.281 307.772 13.105C307.508 12.9217 307.211 12.83 306.881 12.83C306.58 12.83 306.342 12.907 306.166 13.061C305.99 13.2077 305.902 13.3947 305.902 13.622C305.902 13.7907 305.946 13.93 306.034 14.04C306.122 14.1427 306.228 14.2233 306.353 14.282C306.477 14.3333 306.598 14.3773 306.716 14.414L307.684 14.7C308.168 14.8393 308.542 15.0557 308.806 15.349C309.077 15.6423 309.213 15.9943 309.213 16.405C309.213 16.735 309.121 17.032 308.938 17.296C308.754 17.56 308.501 17.7653 308.179 17.912C307.856 18.0587 307.482 18.132 307.057 18.132ZM174.505 35V26.805H175.495L178.564 31.172H178.058L181.105 26.805H182.095V35H181.006V28.169L181.391 28.29L178.344 32.58H178.256L175.242 28.29L175.583 28.169V35H174.505ZM185.532 35.132C185.143 35.132 184.799 35.0623 184.498 34.923C184.205 34.7763 183.974 34.5783 183.805 34.329C183.636 34.0723 183.552 33.779 183.552 33.449C183.552 33.1337 183.618 32.8513 183.75 32.602C183.889 32.3453 184.102 32.129 184.388 31.953C184.681 31.777 185.048 31.6523 185.488 31.579L187.688 31.216V32.074L185.719 32.404C185.338 32.47 185.059 32.591 184.883 32.767C184.714 32.943 184.63 33.1593 184.63 33.416C184.63 33.658 184.725 33.8597 184.916 34.021C185.114 34.1823 185.36 34.263 185.653 34.263C186.027 34.263 186.35 34.186 186.621 34.032C186.9 33.8707 187.116 33.6543 187.27 33.383C187.431 33.1117 187.512 32.811 187.512 32.481V30.974C187.512 30.6513 187.391 30.391 187.149 30.193C186.914 29.9877 186.603 29.885 186.214 29.885C185.877 29.885 185.576 29.973 185.312 30.149C185.055 30.3177 184.865 30.545 184.74 30.831L183.849 30.369C183.959 30.0977 184.135 29.8557 184.377 29.643C184.619 29.423 184.901 29.2507 185.224 29.126C185.547 29.0013 185.884 28.939 186.236 28.939C186.691 28.939 187.09 29.027 187.435 29.203C187.78 29.3717 188.047 29.61 188.238 29.918C188.436 30.2187 188.535 30.5707 188.535 30.974V35H187.534V33.878L187.721 33.944C187.596 34.1787 187.428 34.384 187.215 34.56C187.002 34.736 186.753 34.8753 186.467 34.978C186.181 35.0807 185.869 35.132 185.532 35.132ZM190.121 35V29.071H191.122V30.226L190.957 30.127C191.104 29.753 191.338 29.4633 191.661 29.258C191.991 29.0453 192.376 28.939 192.816 28.939C193.241 28.939 193.619 29.0343 193.949 29.225C194.286 29.4157 194.55 29.6797 194.741 30.017C194.939 30.3543 195.038 30.7357 195.038 31.161V35H194.004V31.491C194.004 31.161 193.945 30.8823 193.828 30.655C193.711 30.4277 193.542 30.2517 193.322 30.127C193.109 29.995 192.864 29.929 192.585 29.929C192.306 29.929 192.057 29.995 191.837 30.127C191.624 30.2517 191.456 30.4313 191.331 30.666C191.206 30.8933 191.144 31.1683 191.144 31.491V35H190.121ZM198.24 35.132C197.851 35.132 197.507 35.0623 197.206 34.923C196.913 34.7763 196.682 34.5783 196.513 34.329C196.344 34.0723 196.26 33.779 196.26 33.449C196.26 33.1337 196.326 32.8513 196.458 32.602C196.597 32.3453 196.81 32.129 197.096 31.953C197.389 31.777 197.756 31.6523 198.196 31.579L200.396 31.216V32.074L198.427 32.404C198.046 32.47 197.767 32.591 197.591 32.767C197.422 32.943 197.338 33.1593 197.338 33.416C197.338 33.658 197.433 33.8597 197.624 34.021C197.822 34.1823 198.068 34.263 198.361 34.263C198.735 34.263 199.058 34.186 199.329 34.032C199.608 33.8707 199.824 33.6543 199.978 33.383C200.139 33.1117 200.22 32.811 200.22 32.481V30.974C200.22 30.6513 200.099 30.391 199.857 30.193C199.622 29.9877 199.311 29.885 198.922 29.885C198.585 29.885 198.284 29.973 198.02 30.149C197.763 30.3177 197.573 30.545 197.448 30.831L196.557 30.369C196.667 30.0977 196.843 29.8557 197.085 29.643C197.327 29.423 197.609 29.2507 197.932 29.126C198.255 29.0013 198.592 28.939 198.944 28.939C199.399 28.939 199.798 29.027 200.143 29.203C200.488 29.3717 200.755 29.61 200.946 29.918C201.144 30.2187 201.243 30.5707 201.243 30.974V35H200.242V33.878L200.429 33.944C200.304 34.1787 200.136 34.384 199.923 34.56C199.71 34.736 199.461 34.8753 199.175 34.978C198.889 35.0807 198.577 35.132 198.24 35.132ZM205.656 37.42C205.238 37.42 204.849 37.354 204.49 37.222C204.138 37.09 203.834 36.9067 203.577 36.672C203.328 36.4447 203.137 36.177 203.005 35.869L203.962 35.429C204.065 35.7077 204.259 35.9423 204.545 36.133C204.838 36.331 205.205 36.43 205.645 36.43C205.982 36.43 206.287 36.364 206.558 36.232C206.837 36.1073 207.057 35.9167 207.218 35.66C207.379 35.4107 207.46 35.1063 207.46 34.747V33.416L207.647 33.614C207.442 34.0173 207.145 34.3253 206.756 34.538C206.375 34.7507 205.953 34.857 205.491 34.857C204.934 34.857 204.435 34.7287 203.995 34.472C203.555 34.208 203.21 33.8523 202.961 33.405C202.712 32.9503 202.587 32.448 202.587 31.898C202.587 31.3407 202.712 30.8383 202.961 30.391C203.21 29.9437 203.551 29.5917 203.984 29.335C204.424 29.071 204.923 28.939 205.48 28.939C205.942 28.939 206.36 29.0453 206.734 29.258C207.115 29.4633 207.42 29.7493 207.647 30.116L207.493 30.391V29.071H208.494V34.747C208.494 35.2603 208.373 35.7187 208.131 36.122C207.889 36.5253 207.552 36.8407 207.119 37.068C206.694 37.3027 206.206 37.42 205.656 37.42ZM205.579 33.867C205.931 33.867 206.246 33.779 206.525 33.603C206.811 33.427 207.038 33.1923 207.207 32.899C207.376 32.5983 207.46 32.2647 207.46 31.898C207.46 31.5387 207.376 31.2087 207.207 30.908C207.038 30.6073 206.811 30.369 206.525 30.193C206.246 30.017 205.931 29.929 205.579 29.929C205.22 29.929 204.893 30.017 204.6 30.193C204.307 30.369 204.076 30.6073 203.907 30.908C203.746 31.2013 203.665 31.5313 203.665 31.898C203.665 32.2647 203.746 32.5983 203.907 32.899C204.076 33.1923 204.303 33.427 204.589 33.603C204.882 33.779 205.212 33.867 205.579 33.867ZM212.808 35.132C212.236 35.132 211.726 34.9963 211.279 34.725C210.832 34.4537 210.48 34.0833 210.223 33.614C209.966 33.1373 209.838 32.6057 209.838 32.019C209.838 31.425 209.963 30.897 210.212 30.435C210.469 29.973 210.813 29.61 211.246 29.346C211.686 29.0747 212.177 28.939 212.72 28.939C213.16 28.939 213.549 29.0197 213.886 29.181C214.231 29.335 214.52 29.5477 214.755 29.819C214.997 30.083 215.18 30.3873 215.305 30.732C215.437 31.0693 215.503 31.4213 215.503 31.788C215.503 31.8687 215.496 31.9603 215.481 32.063C215.474 32.1583 215.463 32.25 215.448 32.338H210.586V31.458H214.854L214.37 31.854C214.436 31.4727 214.399 31.1317 214.26 30.831C214.121 30.5303 213.915 30.292 213.644 30.116C213.373 29.94 213.065 29.852 212.72 29.852C212.375 29.852 212.06 29.94 211.774 30.116C211.488 30.292 211.264 30.545 211.103 30.875C210.949 31.1977 210.887 31.5827 210.916 32.03C210.887 32.4627 210.953 32.844 211.114 33.174C211.283 33.4967 211.517 33.7497 211.818 33.933C212.126 34.109 212.46 34.197 212.819 34.197C213.215 34.197 213.549 34.1053 213.82 33.922C214.091 33.7387 214.311 33.504 214.48 33.218L215.338 33.658C215.221 33.9293 215.037 34.1787 214.788 34.406C214.546 34.626 214.256 34.802 213.919 34.934C213.589 35.066 213.219 35.132 212.808 35.132ZM216.837 35V29.071H217.838V30.281L217.695 30.094C217.842 29.72 218.076 29.434 218.399 29.236C218.722 29.038 219.085 28.939 219.488 28.939C219.95 28.939 220.364 29.0673 220.731 29.324C221.105 29.5807 221.362 29.918 221.501 30.336L221.215 30.347C221.369 29.885 221.629 29.5367 221.996 29.302C222.363 29.06 222.77 28.939 223.217 28.939C223.628 28.939 223.998 29.0343 224.328 29.225C224.665 29.4157 224.933 29.6797 225.131 30.017C225.329 30.3543 225.428 30.7357 225.428 31.161V35H224.394V31.491C224.394 31.161 224.335 30.8823 224.218 30.655C224.101 30.4277 223.939 30.2517 223.734 30.127C223.536 29.995 223.301 29.929 223.03 29.929C222.766 29.929 222.528 29.995 222.315 30.127C222.11 30.2517 221.945 30.4313 221.82 30.666C221.703 30.8933 221.644 31.1683 221.644 31.491V35H220.61V31.491C220.61 31.161 220.551 30.8823 220.434 30.655C220.317 30.4277 220.155 30.2517 219.95 30.127C219.752 29.995 219.517 29.929 219.246 29.929C218.982 29.929 218.744 29.995 218.531 30.127C218.326 30.2517 218.161 30.4313 218.036 30.666C217.919 30.8933 217.86 31.1683 217.86 31.491V35H216.837ZM229.609 35.132C229.037 35.132 228.527 34.9963 228.08 34.725C227.633 34.4537 227.281 34.0833 227.024 33.614C226.767 33.1373 226.639 32.6057 226.639 32.019C226.639 31.425 226.764 30.897 227.013 30.435C227.27 29.973 227.614 29.61 228.047 29.346C228.487 29.0747 228.978 28.939 229.521 28.939C229.961 28.939 230.35 29.0197 230.687 29.181C231.032 29.335 231.321 29.5477 231.556 29.819C231.798 30.083 231.981 30.3873 232.106 30.732C232.238 31.0693 232.304 31.4213 232.304 31.788C232.304 31.8687 232.297 31.9603 232.282 32.063C232.275 32.1583 232.264 32.25 232.249 32.338H227.387V31.458H231.655L231.171 31.854C231.237 31.4727 231.2 31.1317 231.061 30.831C230.922 30.5303 230.716 30.292 230.445 30.116C230.174 29.94 229.866 29.852 229.521 29.852C229.176 29.852 228.861 29.94 228.575 30.116C228.289 30.292 228.065 30.545 227.904 30.875C227.75 31.1977 227.688 31.5827 227.717 32.03C227.688 32.4627 227.754 32.844 227.915 33.174C228.084 33.4967 228.318 33.7497 228.619 33.933C228.927 34.109 229.261 34.197 229.62 34.197C230.016 34.197 230.35 34.1053 230.621 33.922C230.892 33.7387 231.112 33.504 231.281 33.218L232.139 33.658C232.022 33.9293 231.838 34.1787 231.589 34.406C231.347 34.626 231.057 34.802 230.72 34.934C230.39 35.066 230.02 35.132 229.609 35.132ZM233.638 35V29.071H234.639V30.226L234.474 30.127C234.62 29.753 234.855 29.4633 235.178 29.258C235.508 29.0453 235.893 28.939 236.333 28.939C236.758 28.939 237.136 29.0343 237.466 29.225C237.803 29.4157 238.067 29.6797 238.258 30.017C238.456 30.3543 238.555 30.7357 238.555 31.161V35H237.521V31.491C237.521 31.161 237.462 30.8823 237.345 30.655C237.227 30.4277 237.059 30.2517 236.839 30.127C236.626 29.995 236.38 29.929 236.102 29.929C235.823 29.929 235.574 29.995 235.354 30.127C235.141 30.2517 234.972 30.4313 234.848 30.666C234.723 30.8933 234.661 31.1683 234.661 31.491V35H233.638ZM242.428 35.066C241.848 35.066 241.401 34.901 241.086 34.571C240.778 34.241 240.624 33.7753 240.624 33.174V30.05H239.546V29.071H239.766C240.03 29.071 240.239 28.9903 240.393 28.829C240.547 28.6677 240.624 28.455 240.624 28.191V27.707H241.647V29.071H242.978V30.05H241.647V33.141C241.647 33.339 241.676 33.5113 241.735 33.658C241.801 33.8047 241.907 33.922 242.054 34.01C242.2 34.0907 242.395 34.131 242.637 34.131C242.688 34.131 242.75 34.1273 242.824 34.12C242.904 34.1127 242.978 34.1053 243.044 34.098V35C242.948 35.022 242.842 35.0367 242.725 35.044C242.607 35.0587 242.508 35.066 242.428 35.066ZM249.218 35.132C248.698 35.132 248.221 35.0367 247.788 34.846C247.356 34.648 246.989 34.3803 246.688 34.043C246.388 33.7057 246.171 33.328 246.039 32.91L246.974 32.525C247.172 33.053 247.466 33.46 247.854 33.746C248.25 34.0247 248.712 34.164 249.24 34.164C249.563 34.164 249.845 34.1127 250.087 34.01C250.329 33.9073 250.516 33.7643 250.648 33.581C250.788 33.3903 250.857 33.1703 250.857 32.921C250.857 32.5763 250.758 32.305 250.56 32.107C250.37 31.9017 250.087 31.7477 249.713 31.645L248.206 31.183C247.612 30.9997 247.158 30.71 246.842 30.314C246.527 29.918 246.369 29.4633 246.369 28.95C246.369 28.5027 246.476 28.1103 246.688 27.773C246.908 27.4283 247.209 27.1607 247.59 26.97C247.979 26.772 248.419 26.673 248.91 26.673C249.402 26.673 249.845 26.761 250.241 26.937C250.645 27.113 250.986 27.3513 251.264 27.652C251.543 27.9453 251.748 28.2827 251.88 28.664L250.956 29.049C250.78 28.587 250.516 28.2387 250.164 28.004C249.812 27.762 249.398 27.641 248.921 27.641C248.628 27.641 248.368 27.6923 248.14 27.795C247.92 27.8903 247.748 28.0333 247.623 28.224C247.506 28.4073 247.447 28.6273 247.447 28.884C247.447 29.1847 247.543 29.4523 247.733 29.687C247.924 29.9217 248.214 30.1013 248.602 30.226L249.977 30.633C250.623 30.831 251.11 31.1133 251.44 31.48C251.77 31.8467 251.935 32.3013 251.935 32.844C251.935 33.2913 251.818 33.6873 251.583 34.032C251.356 34.3767 251.037 34.648 250.626 34.846C250.223 35.0367 249.754 35.132 249.218 35.132ZM256.209 35.132C255.637 35.132 255.12 35 254.658 34.736C254.196 34.4647 253.829 34.0943 253.558 33.625C253.286 33.1557 253.151 32.624 253.151 32.03C253.151 31.436 253.283 30.908 253.547 30.446C253.818 29.984 254.185 29.6173 254.647 29.346C255.109 29.0747 255.629 28.939 256.209 28.939C256.781 28.939 257.298 29.0747 257.76 29.346C258.222 29.61 258.585 29.973 258.849 30.435C259.12 30.897 259.256 31.4287 259.256 32.03C259.256 32.6313 259.116 33.1667 258.838 33.636C258.559 34.098 258.189 34.4647 257.727 34.736C257.272 35 256.766 35.132 256.209 35.132ZM256.209 34.142C256.575 34.142 256.905 34.0503 257.199 33.867C257.499 33.6837 257.734 33.4307 257.903 33.108C258.079 32.7853 258.167 32.426 258.167 32.03C258.167 31.6267 258.079 31.271 257.903 30.963C257.734 30.6477 257.499 30.3983 257.199 30.215C256.905 30.0243 256.575 29.929 256.209 29.929C255.835 29.929 255.497 30.0243 255.197 30.215C254.903 30.3983 254.669 30.6477 254.493 30.963C254.317 31.271 254.229 31.6267 254.229 32.03C254.229 32.426 254.317 32.7853 254.493 33.108C254.669 33.4307 254.903 33.6837 255.197 33.867C255.497 34.0503 255.835 34.142 256.209 34.142ZM260.59 35V26.673H261.613V35H260.59ZM265.301 35.132C264.876 35.132 264.491 35.033 264.146 34.835C263.809 34.637 263.545 34.362 263.354 34.01C263.171 33.6507 263.079 33.24 263.079 32.778V29.071H264.102V32.668C264.102 32.9613 264.161 33.218 264.278 33.438C264.403 33.658 264.572 33.8303 264.784 33.955C265.004 34.0797 265.254 34.142 265.532 34.142C265.811 34.142 266.057 34.0797 266.269 33.955C266.489 33.8303 266.658 33.6507 266.775 33.416C266.9 33.1813 266.962 32.9027 266.962 32.58V29.071H267.996V35H266.995V33.845L267.16 33.944C267.021 34.318 266.783 34.6113 266.445 34.824C266.115 35.0293 265.734 35.132 265.301 35.132ZM271.99 35.066C271.411 35.066 270.963 34.901 270.648 34.571C270.34 34.241 270.186 33.7753 270.186 33.174V30.05H269.108V29.071H269.328C269.592 29.071 269.801 28.9903 269.955 28.829C270.109 28.6677 270.186 28.455 270.186 28.191V27.707H271.209V29.071H272.54V30.05H271.209V33.141C271.209 33.339 271.238 33.5113 271.297 33.658C271.363 33.8047 271.469 33.922 271.616 34.01C271.763 34.0907 271.957 34.131 272.199 34.131C272.25 34.131 272.313 34.1273 272.386 34.12C272.467 34.1127 272.54 34.1053 272.606 34.098V35C272.511 35.022 272.404 35.0367 272.287 35.044C272.17 35.0587 272.071 35.066 271.99 35.066ZM273.942 35V29.071H274.965V35H273.942ZM273.942 28.125V26.805H274.965V28.125H273.942ZM279.369 35.132C278.797 35.132 278.28 35 277.818 34.736C277.356 34.4647 276.989 34.0943 276.718 33.625C276.446 33.1557 276.311 32.624 276.311 32.03C276.311 31.436 276.443 30.908 276.707 30.446C276.978 29.984 277.345 29.6173 277.807 29.346C278.269 29.0747 278.789 28.939 279.369 28.939C279.941 28.939 280.458 29.0747 280.92 29.346C281.382 29.61 281.745 29.973 282.009 30.435C282.28 30.897 282.416 31.4287 282.416 32.03C282.416 32.6313 282.276 33.1667 281.998 33.636C281.719 34.098 281.349 34.4647 280.887 34.736C280.432 35 279.926 35.132 279.369 35.132ZM279.369 34.142C279.735 34.142 280.065 34.0503 280.359 33.867C280.659 33.6837 280.894 33.4307 281.063 33.108C281.239 32.7853 281.327 32.426 281.327 32.03C281.327 31.6267 281.239 31.271 281.063 30.963C280.894 30.6477 280.659 30.3983 280.359 30.215C280.065 30.0243 279.735 29.929 279.369 29.929C278.995 29.929 278.657 30.0243 278.357 30.215C278.063 30.3983 277.829 30.6477 277.653 30.963C277.477 31.271 277.389 31.6267 277.389 32.03C277.389 32.426 277.477 32.7853 277.653 33.108C277.829 33.4307 278.063 33.6837 278.357 33.867C278.657 34.0503 278.995 34.142 279.369 34.142ZM283.75 35V29.071H284.751V30.226L284.586 30.127C284.733 29.753 284.967 29.4633 285.29 29.258C285.62 29.0453 286.005 28.939 286.445 28.939C286.87 28.939 287.248 29.0343 287.578 29.225C287.915 29.4157 288.179 29.6797 288.37 30.017C288.568 30.3543 288.667 30.7357 288.667 31.161V35H287.633V31.491C287.633 31.161 287.574 30.8823 287.457 30.655C287.34 30.4277 287.171 30.2517 286.951 30.127C286.738 29.995 286.493 29.929 286.214 29.929C285.935 29.929 285.686 29.995 285.466 30.127C285.253 30.2517 285.085 30.4313 284.96 30.666C284.835 30.8933 284.773 31.1683 284.773 31.491V35H283.75Z" fill="#292D34"/>
<defs>
<linearGradient id="paint0_linear_1072_39766" x1="0.410156" y1="11.8133" x2="38.9762" y2="11.8133" gradientUnits="userSpaceOnUse">
<stop stop-color="#0096FF"/>
<stop offset="1" stop-color="#005A99"/>
</linearGradient>
<linearGradient id="paint1_linear_1072_39766" x1="20.333" y1="40.6692" x2="16.8327" y2="9.94555" gradientUnits="userSpaceOnUse">
<stop stop-color="#0096FF" stop-opacity="0"/>
<stop offset="1" stop-color="#005A99" stop-opacity="0.7"/>
</linearGradient>
<linearGradient id="paint2_linear_1072_39766" x1="51.5918" y1="22" x2="153.592" y2="22" gradientUnits="userSpaceOnUse">
<stop stop-color="#0096FF"/>
<stop offset="1" stop-color="#005A99"/>
</linearGradient>
<linearGradient id="paint3_linear_1072_39766" x1="51.5918" y1="22" x2="153.592" y2="22" gradientUnits="userSpaceOnUse">
<stop stop-color="#0096FF"/>
<stop offset="1" stop-color="#005A99"/>
</linearGradient>
</defs>
</svg>
