<svg width="92" height="40" viewBox="0 0 92 40" fill="none" xmlns="http://www.w3.org/2000/svg">
<g filter="url(#filter0_d_1172_15902)">
<path d="M15.539 3.1167L2.69531 11.8911L2.854 12.1556L15.6977 3.38117L15.539 3.1167Z" fill="url(#paint0_linear_1172_15902)"/>
<path d="M13.0025 3.27441L2.69531 10.3045L2.854 10.569L13.1611 3.53889L13.0025 3.27441Z" fill="url(#paint1_linear_1172_15902)"/>
<path d="M9.88411 3.80273L2.69531 8.71829L2.854 8.98276L9.9899 4.06721L9.88411 3.80273Z" fill="url(#paint2_linear_1172_15902)"/>
<path d="M5.70772 5.07129L2.74805 7.13296L2.90672 7.39743L5.8664 5.33576L5.70772 5.07129Z" fill="url(#paint3_linear_1172_15902)"/>
<path d="M22.1988 14.428L20.1371 15.8549L9.4068 23.1495L9.61837 23.4669L8.13854 24.4707L8.24433 24.6294L5.12598 26.7968L5.28466 27.0613L8.72038 24.6823L9.82995 23.8888L20.7177 16.4885L20.5062 16.1711L22.4091 14.8499L22.3034 14.6913L29.2806 9.93439L29.1219 9.66992L22.1988 14.428Z" fill="url(#paint4_linear_1172_15902)"/>
<path d="M22.7811 15.6436L20.5608 17.1763L10.2007 24.2594L10.4123 24.5767L8.8267 25.6863L8.93249 25.845L5.91992 27.9595L6.0786 28.224L9.09116 26.1094L10.6239 24.9999L21.0368 17.9169L20.8253 17.5995L23.0456 16.1197L22.9398 15.961L29.3352 11.6273L29.1765 11.3628L22.7811 15.6436Z" fill="url(#paint5_linear_1172_15902)"/>
<path d="M23.3624 16.8055L21.5123 18.0737L10.9407 25.3154L11.1522 25.6328L9.72529 26.6366L9.83108 26.7953L6.76562 28.9627L6.92431 29.2272L9.98977 27.0597L11.4167 26.056L21.9883 18.8143L21.7767 18.4969L23.6268 17.2286L23.5211 17.07L29.3346 13.1053L29.1759 12.8408L23.3624 16.8055Z" fill="url(#paint6_linear_1172_15902)"/>
<path d="M24.2073 17.8106L22.3572 19.0788L11.6269 26.3205L11.8384 26.6379L9.98835 27.9061L10.0941 28.0648L7.55762 29.8091L7.7163 30.0736L10.6231 28.0648L12.579 26.6908L22.8861 19.7135L22.6745 19.3962L24.4188 18.2337L24.313 18.075L29.2286 14.6922L29.0699 14.4277L24.2073 17.8106Z" fill="url(#paint7_linear_1172_15902)"/>
<path d="M25.2647 18.6561L23.2571 20.0301L13.9549 26.3726L14.1665 26.69L11.9461 28.2227L12.0519 28.3814L8.61621 30.7604L8.77489 31.0249L12.528 28.4355L14.431 27.1143L23.786 20.7718L23.5744 20.4545L25.5303 19.1333L25.4245 18.9746L29.2834 16.3323L29.1247 16.0679L25.2647 18.6561Z" fill="url(#paint8_linear_1172_15902)"/>
<path d="M27.6431 18.7614L27.5902 18.6556L25.264 20.2413L16.278 26.3722L16.4896 26.6895L14.0577 28.381L14.1635 28.5396L9.93555 31.4993L10.0942 31.7638L14.6395 28.5925L16.9657 26.954L25.7401 20.9818L25.5285 20.6644L27.8546 19.0788L27.696 18.8672L27.8018 18.973L29.2816 17.9163L29.1229 17.6519L27.6431 18.7614Z" fill="url(#paint9_linear_1172_15902)"/>
<path d="M27.6964 20.1885L26.3752 21.0865L21.0894 24.6809L21.301 24.9982L19.0806 26.5839L19.1864 26.7425L11.0996 32.3986L11.2583 32.6631L19.6625 26.7966L21.6183 25.4226L26.8513 21.8282L26.6397 21.5108L27.9608 20.6128L27.855 20.4541L29.2291 19.5032L29.0704 19.2388L27.6964 20.1885Z" fill="url(#paint10_linear_1172_15902)"/>
<path d="M27.9609 21.6684L26.6926 22.4618L22.5176 25.3156L22.7292 25.633L20.7733 27.0071L20.8791 27.1657L12.3691 33.0851L12.5278 33.3496L21.4609 27.1128L23.1523 25.8975L27.1699 23.1494L26.9583 22.832L28.2266 21.9869L28.0679 21.7754L29.0188 21.1406L28.913 20.9819L27.9609 21.6684Z" fill="url(#paint11_linear_1172_15902)"/>
<path d="M3.91133 13.7399L5.12669 12.8947L9.61909 9.82929L9.40751 9.51192L11.4163 8.13788L11.3105 7.97919L17.9704 3.4339L17.8117 3.16943L11.1518 7.71473L9.19594 9.08877L4.43907 12.3658L4.65064 12.6832L3.54107 13.4766L3.64686 13.6353L2.80176 14.2171L2.96043 14.4816L3.91133 13.7399Z" fill="url(#paint12_linear_1172_15902)"/>
<path d="M4.65179 14.85L5.81426 14.0049L11.4174 10.1989L11.2059 9.88154L12.7386 8.82486L12.6328 8.66618L19.9274 3.64484L19.7687 3.38037L12.4741 8.40171L10.9414 9.45839L5.02205 13.5288L5.23363 13.8462L4.22983 14.5867L4.33562 14.7454L2.75 15.855L2.90868 16.1195L4.65179 14.85Z" fill="url(#paint13_linear_1172_15902)"/>
<path d="M4.91566 16.2246L6.50129 15.115L12.5793 10.9917L12.3677 10.6743L14.0062 9.56475L13.9005 9.40607L21.7228 4.01447L21.5641 3.75L13.7418 9.1416L12.0504 10.3041L5.65498 14.6378L5.86656 14.9551L4.49251 15.906L4.5983 16.0647L2.69531 17.3859L2.854 17.6503L4.91566 16.2246Z" fill="url(#paint14_linear_1172_15902)"/>
<path d="M5.54942 17.3876L7.24083 16.1722L13.6891 11.7856L13.4775 11.4683L15.2218 10.3058L15.1161 10.1471L23.5202 4.49103L23.3615 4.22656L14.8516 9.98842L13.2131 11.098L6.28873 15.8549L6.50031 16.1722L4.91469 17.2818L5.02047 17.4405L2.69434 19.079L2.85302 19.3435L5.54942 17.3876Z" fill="url(#paint15_linear_1172_15902)"/>
<path d="M6.28955 18.4441L7.39913 17.6507L14.8524 12.5765L14.6408 12.2591L16.5438 10.9379L16.438 10.7793L24.8951 5.0174L24.7364 4.75293L16.2793 10.5148L14.3235 11.8359L6.87018 16.9102L7.08176 17.2275L5.65482 18.2313L5.76061 18.39L2.74805 20.4517L2.90672 20.7162L6.28955 18.4441Z" fill="url(#paint16_linear_1172_15902)"/>
<path d="M7.02896 19.5019L8.29721 18.6039L16.0138 13.371L15.8022 13.0536L17.9167 11.6267L17.811 11.468L26.4796 5.54865L26.3209 5.28418L17.6523 11.2035L15.379 12.7362L7.5567 18.075L7.76827 18.3923L6.44712 19.3432L6.55291 19.5019L3.11719 21.9338L3.27587 22.1983L7.02896 19.5019Z" fill="url(#paint17_linear_1172_15902)"/>
<path d="M7.24032 20.9815L9.03752 19.7132L18.1293 13.5294L17.9177 13.2121L19.9265 11.838L19.8207 11.6793L27.9075 6.18195L27.7488 5.91748L19.662 11.4149L17.6004 12.8418L8.13952 19.2372L8.3511 19.5546L6.65969 20.717L6.76548 20.8757L3.43555 23.2019L3.59423 23.4663L7.24032 20.9815Z" fill="url(#paint18_linear_1172_15902)"/>
<path d="M7.50537 22.4091L9.09099 21.2996L18.975 14.5868L18.7634 14.2694L20.7722 12.8954L20.6664 12.7367L29.1764 6.92316L29.0177 6.65869L20.5077 12.4722L18.4989 13.8463L8.40337 20.7177L8.61495 21.0351L6.92354 22.2505L7.02932 22.4091L3.96387 24.5237L4.12255 24.7882L7.50537 22.4091Z" fill="url(#paint19_linear_1172_15902)"/>
<path d="M7.82293 23.7827L9.19698 22.8318L19.7157 15.643L19.5041 15.3257L21.4071 14.0045L21.3013 13.8458L29.3881 8.34845L29.2294 8.08398L21.1426 13.5814L19.2397 14.9025L8.72094 22.0913L8.93251 22.4087L7.34689 23.5183L7.45268 23.6769L4.5459 25.6857L4.70458 25.9502L7.82293 23.7827Z" fill="url(#paint20_linear_1172_15902)"/>
<path d="M28.172 23.6772L13.584 33.8257L13.7427 34.0902L28.3306 23.9417L28.172 23.6772Z" fill="url(#paint21_linear_1172_15902)"/>
<path d="M27.1146 26.0562L14.8516 34.619L15.0102 34.8835L27.2733 26.3206L27.1146 26.0562Z" fill="url(#paint22_linear_1172_15902)"/>
<path d="M24.5781 29.439L19.1865 33.192L19.3452 33.4565L24.7368 29.7034L24.5781 29.439Z" fill="url(#paint23_linear_1172_15902)"/>
<path d="M68.5817 23.1235C68.3172 23.1235 68.0527 23.3351 68.0527 23.5996C68.0527 23.8641 68.2643 24.1285 68.5817 24.1285C68.899 24.1285 69.0577 23.917 69.0577 23.5996C69.0577 23.3351 68.8461 23.1235 68.5817 23.1235Z" fill="#E5F4FF"/>
<path d="M37.7133 19.3702H37.0257C36.8141 19.2644 36.7612 19.1057 36.7612 18.9471C36.7612 18.7884 36.867 18.6826 37.0257 18.6826C37.1844 18.6826 37.2901 18.7884 37.2901 18.9471H37.6604C37.6075 18.471 37.343 18.2065 36.9728 18.2065C36.6025 18.2065 36.3381 18.471 36.3381 18.8413C36.3381 19.0528 36.3909 19.1586 36.4967 19.2644H36.2852V19.6876H37.7121V19.3702H37.7133Z" fill="#E5F4FF"/>
<path d="M38.9821 21.0091C38.9821 21.3265 38.8763 21.5909 38.4003 21.5909H35.8638C35.4406 21.5909 35.1233 21.2736 35.1233 20.8504V19.7937H34.3311V20.8504C34.3311 21.7484 35.0187 22.3832 35.8638 22.3832H38.7177C39.3524 22.3832 39.7743 21.9071 39.7743 21.3265V17.3618H38.9809V21.0091H38.9821Z" fill="#E5F4FF"/>
<path d="M41.1498 22.5418C41.1498 22.965 40.8325 23.2824 40.4093 23.2824H40.0391V24.1275H40.4093C41.3073 24.1275 41.9421 23.4398 41.9421 22.5947V19.0532H41.0969V22.5418H41.1498Z" fill="#E5F4FF"/>
<path d="M51.0864 23.0176C50.8219 23.0176 50.6104 23.2292 50.6104 23.4936C50.6104 23.7581 50.8219 24.0226 51.0864 24.0226C51.3509 24.0226 51.6153 23.811 51.6153 23.4936C51.6153 23.2292 51.4038 23.0176 51.0864 23.0176Z" fill="#E5F4FF"/>
<path d="M54.6278 21.2737C54.6278 21.4853 54.4691 21.5911 54.3104 21.5911H53.2009C53.0422 21.5911 52.8835 21.5382 52.4603 20.6402C51.7198 19.1075 50.6103 18.4728 49.2891 18.9488V19.6893C50.3458 19.2662 51.0334 19.6893 51.5623 20.6931C51.7739 21.0634 51.9326 21.4336 52.0384 21.5382H48.8143C48.5498 21.5382 48.3382 21.3266 48.3382 21.0622V20.2688C48.3382 19.3708 47.6506 18.6831 46.7526 18.6831H46.6468C45.7488 18.6831 45.0612 19.3708 45.0612 20.2688V21.0622C45.0612 21.3266 44.8496 21.5382 44.5851 21.5382H44.0033C43.8446 21.5382 43.6859 21.4324 43.6859 21.2208V17.362H42.8408V21.4853C42.8408 21.9614 43.2111 22.3304 43.6859 22.3304H44.531C44.9542 22.3304 45.2715 22.1717 45.4819 21.8544C45.7993 22.1188 46.2224 22.2775 46.6973 22.2775C47.1204 22.2775 47.4907 22.066 47.754 21.8015C47.9655 22.1188 48.2829 22.2775 48.7049 22.2775H54.4667C54.9428 22.2775 55.3118 21.9073 55.3118 21.4324V17.3091H54.4667L54.6278 21.2737ZM47.5448 20.8506C47.5448 21.2737 47.2274 21.5911 46.8043 21.5911C46.434 21.5911 46.1167 21.4324 45.9592 21.1679V20.3228C45.9592 19.8468 46.2765 19.5823 46.6997 19.5823H46.7526C47.1757 19.5823 47.4931 19.8997 47.4931 20.3228L47.5448 20.8506Z" fill="#E5F4FF"/>
<path d="M57.2699 17.4146H56.4248V22.4359H57.2699V17.4146Z" fill="#E5F4FF"/>
<path d="M59.8076 18.7891H59.7018C58.8038 18.7891 58.1162 19.4767 58.1162 20.3747V20.9036C58.1162 21.8016 58.8038 22.4892 59.6489 22.4892H60.5469V22.595C60.5469 23.1769 60.1238 23.493 58.6968 23.2298V24.0232C60.4412 24.4463 61.392 23.8116 61.392 22.8078V20.3759C61.3404 19.4238 60.7056 18.7891 59.8076 18.7891ZM60.5469 21.5913H59.7018C59.3316 21.5913 59.0142 21.221 59.0142 20.8507V20.3218C59.0142 19.8986 59.3316 19.5813 59.7547 19.5813H59.8076C60.2308 19.5813 60.5481 19.8986 60.5481 20.3218L60.5469 21.5913Z" fill="#E5F4FF"/>
<path d="M64.5651 18.1547C64.8295 18.1547 65.0411 17.9432 65.0411 17.6787C65.0411 17.4142 64.8295 17.2026 64.5651 17.2026C64.3006 17.2026 64.0361 17.4142 64.0361 17.6787C64.0361 17.9432 64.2477 18.1547 64.5651 18.1547Z" fill="#E5F4FF"/>
<path d="M65.9389 18.1547C66.2034 18.1547 66.415 17.9432 66.415 17.6787C66.415 17.4142 66.2034 17.2026 65.9389 17.2026C65.6745 17.2026 65.4629 17.4142 65.4629 17.6787C65.4629 17.9432 65.6745 18.1547 65.9389 18.1547Z" fill="#E5F4FF"/>
<path d="M71.8579 23.123C71.5934 23.123 71.3818 23.3346 71.3818 23.5991C71.3818 23.8636 71.5934 24.128 71.8579 24.128C72.1224 24.128 72.3339 23.9165 72.3339 23.5991C72.3339 23.3346 72.1224 23.123 71.8579 23.123Z" fill="#E5F4FF"/>
<path d="M72.3343 21.5905V19.054H71.4892V21.3273C71.4892 21.5388 71.3305 21.6446 71.1718 21.6446H69.692C69.2689 21.6446 69.1102 21.3802 69.1102 21.0628V20.957C69.1102 20.9041 69.1102 20.7983 69.1102 20.7454V19.054H68.2651V21.0628C68.2651 21.3802 68.1593 21.6446 67.7361 21.6446H67.1543C66.8898 21.6446 66.6782 21.4331 66.6782 21.1686V18.7896H65.0397C64.1417 18.7896 63.4541 19.4772 63.4541 20.3752V20.8512C63.4541 21.6963 64.1417 22.4368 64.9868 22.4368C65.5158 22.4368 65.8319 22.2782 66.0964 21.9608C66.3609 22.2782 66.6782 22.4368 67.1531 22.4368H67.7349C68.211 22.4368 68.4754 22.2782 68.6858 22.0137C68.8974 22.2782 69.2148 22.4368 69.5309 22.4368H71.381C71.9641 22.4356 72.3343 22.0654 72.3343 21.5905ZM65.9389 21.2203C65.7273 21.4847 65.41 21.6434 65.0938 21.6434C64.7236 21.6434 64.4062 21.3261 64.4062 20.9029V20.4269C64.4062 19.9508 64.7236 19.6863 65.1467 19.6863H65.9918V21.2191C65.9918 21.2203 65.9389 21.2203 65.9389 21.2203Z" fill="#E5F4FF"/>
<path d="M70.4313 23.123C70.1668 23.123 69.9023 23.3346 69.9023 23.5991C69.9023 23.8636 70.1139 24.128 70.4313 24.128C70.6958 24.128 70.9073 23.9165 70.9073 23.5991C70.9602 23.3346 70.6958 23.123 70.4313 23.123Z" fill="#E5F4FF"/>
<path d="M79.2057 18.3141C79.4702 18.3141 79.6817 18.1025 79.6817 17.7851C79.6817 17.4678 79.4702 17.3091 79.2057 17.3091C78.9412 17.3091 78.6768 17.5207 78.6768 17.7851C78.7297 18.1025 78.9412 18.3141 79.2057 18.3141Z" fill="#E5F4FF"/>
<path d="M82.2184 21.2737C82.2184 21.4853 82.0597 21.5911 81.9011 21.5911H81.1076V20.9564C81.1076 19.4765 80.4729 18.7889 79.2575 18.7889C78.4641 18.7889 77.7777 19.3179 77.1959 20.0043V19.1592H76.3508V21.5911H75.1883V18.9476H74.3432V22.4891C74.3432 22.9123 74.0258 23.2296 73.6027 23.2296H73.2324V24.0747H73.6027C74.5007 24.0747 75.1354 23.3871 75.1354 22.542V22.4362H82.1126C82.5887 22.4362 82.9577 22.066 82.9577 21.5911V17.4678H82.1126V21.2737H82.2184ZM80.2625 21.644H77.1971V20.7989C77.8318 20.0584 78.5182 19.6364 79.153 19.6364C79.7877 19.6364 80.3154 20.0067 80.3154 21.0105L80.2625 21.644Z" fill="#E5F4FF"/>
<path d="M84.8617 17.4146H84.0166V22.4359H84.8617V17.4146Z" fill="#E5F4FF"/>
<path d="M87.3984 18.7891H87.2927C86.3947 18.7891 85.707 19.4767 85.707 20.3747V20.9036C85.707 21.8016 86.3947 22.4892 87.2398 22.4892H88.1378V22.595C88.1378 23.1769 87.7146 23.493 86.2877 23.2298V24.0232C88.032 24.4463 88.9829 23.8116 88.9829 22.8078V20.3759C88.9312 19.4238 88.2964 18.7891 87.3984 18.7891ZM88.139 21.5913H87.2939C86.9236 21.5913 86.6062 21.221 86.6062 20.8507V20.3218C86.6062 19.8986 86.9236 19.5813 87.3468 19.5813H87.4525C87.8757 19.5813 88.1931 19.8986 88.1931 20.3218L88.139 21.5913Z" fill="#E5F4FF"/>
<path d="M36.8159 9.80382C37.0804 9.80382 37.2919 9.59224 37.2919 9.27487C37.2919 9.0104 37.0804 8.79883 36.8159 8.79883C36.5514 8.79883 36.3398 9.0104 36.3398 9.27487C36.3398 9.59224 36.5514 9.80382 36.8159 9.80382Z" fill="#E5F4FF"/>
<path d="M35.3873 9.80382C35.6518 9.80382 35.8634 9.59224 35.8634 9.27487C35.8634 9.0104 35.6518 8.79883 35.3873 8.79883C35.1229 8.79883 34.8584 9.0104 34.8584 9.27487C34.9125 9.59224 35.1241 9.80382 35.3873 9.80382Z" fill="#E5F4FF"/>
<path d="M36.0223 10.2783H35.9165C35.0714 10.2783 34.3838 10.9659 34.3838 11.811V12.4458C34.3838 13.2909 35.0714 13.9785 35.9165 13.9785H36.0752C36.8686 13.9785 37.555 13.2909 37.555 12.4987V11.811C37.555 10.9659 36.8674 10.2783 36.0223 10.2783ZM36.7099 12.4987C36.7099 12.816 36.4455 13.1334 36.0752 13.1334H35.9165C35.5463 13.1334 35.2289 12.816 35.2289 12.3929V11.811C35.2289 11.3879 35.5463 11.1234 35.9165 11.1234H36.0223C36.4455 11.1234 36.7099 11.4408 36.7099 11.811V12.4987Z" fill="#E5F4FF"/>
<path d="M50.5044 9.85655C50.7688 9.85655 50.9804 9.64497 50.9804 9.32761C50.9804 9.06314 50.7688 8.85156 50.5044 8.85156C50.2399 8.85156 50.0283 9.06314 50.0283 9.32761C50.0295 9.59208 50.2399 9.85655 50.5044 9.85655Z" fill="#E5F4FF"/>
<path d="M58.4856 12.8162C58.4856 13.0278 58.327 13.1336 58.1683 13.1336H50.9266V10.4913H50.0815V14.0328C50.0815 14.4559 49.7641 14.7733 49.341 14.7733H48.9707V15.6172H49.341C50.239 15.6172 50.8737 14.9296 50.8737 14.0845V13.9787H58.3787C58.8547 13.9787 59.2238 13.6084 59.2238 13.1336V9.01025H58.3787V12.8162C58.3811 12.8162 58.4856 12.8162 58.4856 12.8162Z" fill="#E5F4FF"/>
<path d="M61.1293 8.95752H60.2842V13.9789H61.1293V8.95752Z" fill="#E5F4FF"/>
<path d="M64.4586 9.69819C64.7231 9.69819 64.9347 9.48661 64.9347 9.22214C64.9347 8.95767 64.7231 8.74609 64.4586 8.74609C64.1942 8.74609 63.9297 8.95767 63.9297 9.22214C63.9826 9.48661 64.1942 9.69819 64.4586 9.69819Z" fill="#E5F4FF"/>
<path d="M65.8862 9.69819C66.1507 9.69819 66.3623 9.48661 66.3623 9.22214C66.3623 8.95767 66.1507 8.74609 65.8862 8.74609C65.6217 8.74609 65.4102 8.95767 65.4102 9.22214C65.4102 9.48661 65.6217 9.69819 65.8862 9.69819Z" fill="#E5F4FF"/>
<path d="M70.0613 9.43353H69.3208C69.1092 9.32774 69.0563 9.16906 69.0563 9.01038C69.0563 8.8517 69.1621 8.74591 69.3208 8.74591C69.4794 8.74591 69.5852 8.8517 69.6381 9.06327H70.0613C70.0084 8.53433 69.7439 8.32275 69.3208 8.32275C68.8976 8.32275 68.6331 8.58722 68.6331 9.01038C68.6331 9.22196 68.686 9.38064 68.7918 9.48642H68.5273V9.96247H70.0601L70.0613 9.43353Z" fill="#E5F4FF"/>
<path d="M76.0348 14.6138C75.7703 14.6138 75.5059 14.8253 75.5059 15.0898C75.5059 15.3543 75.7174 15.6188 76.0348 15.6188C76.2993 15.6188 76.5108 15.4072 76.5108 15.0898C76.5108 14.7725 76.2993 14.6138 76.0348 14.6138Z" fill="#E5F4FF"/>
<path d="M77.4087 14.6138C77.1442 14.6138 76.9326 14.8253 76.9326 15.0898C76.9326 15.3543 77.1442 15.6188 77.4087 15.6188C77.6731 15.6188 77.8847 15.4072 77.8847 15.0898C77.8847 14.7725 77.6731 14.6138 77.4087 14.6138Z" fill="#E5F4FF"/>
<path d="M85.0718 10.3843V10.8075C84.49 10.9662 84.1209 11.4422 84.068 12.0758V12.446C84.068 12.7105 84.1738 12.975 84.3325 13.1336H79.0467C78.6235 13.1336 78.4649 12.8692 78.4649 12.5518V12.446C78.4649 12.3931 78.4649 12.2873 78.4649 12.2344V10.543H77.6715V12.5518C77.6715 12.8692 77.5657 13.1336 77.1425 13.1336H73.1778C72.7547 13.1336 72.596 12.8692 72.596 12.5518V10.543H71.7509V12.5518C71.7509 12.8692 71.6451 13.1336 71.222 13.1336H67.0986C66.8342 13.1336 66.6226 12.9221 66.6226 12.6576V10.2786H64.9841C64.0861 10.2786 63.3984 10.9662 63.3984 11.8642V12.3402C63.3984 13.1853 64.0861 13.9259 64.9312 13.9259C65.4601 13.9259 65.7763 13.7672 66.0407 13.4498C66.3052 13.7672 66.6226 13.9259 67.0974 13.9259H71.1679C71.6439 13.9259 71.9084 13.7672 72.1188 13.5027C72.3303 13.7143 72.6477 13.9259 72.9639 13.9259H77.0343C77.5104 13.9259 77.7748 13.7672 77.9852 13.5027C78.1968 13.7143 78.5142 13.9259 78.8303 13.9259H87.1287C87.9738 13.9259 88.6614 13.2382 88.6614 12.3931V11.9171C88.772 10.7546 87.2922 9.85661 85.0718 10.3843ZM65.8328 12.7105C65.6212 12.975 65.3038 13.1336 64.9877 13.1336C64.6174 13.1336 64.3 12.8163 64.3 12.3931V11.9171C64.3 11.441 64.6174 11.1766 65.0406 11.1766H65.8857L65.8328 12.7105ZM86.1826 13.1336H85.4421C85.0718 13.0807 84.7545 12.8163 84.7545 12.446V12.1287C84.7545 11.7055 85.0189 11.441 85.4421 11.441C85.8652 11.441 86.1297 11.7055 86.1297 12.1287L86.1826 13.1336ZM87.2393 13.1336H86.869V12.1299C86.869 11.548 86.4988 11.1261 86.0239 11.0203C87.1335 10.9145 87.9269 11.3376 87.9798 11.9183V12.3943C87.9798 12.8163 87.6624 13.1336 87.2393 13.1336Z" fill="#E5F4FF"/>
<path d="M48.6014 12.6046C48.6014 13.3451 47.9666 13.9786 47.2273 13.9786H39.2992C38.8232 13.9786 38.4541 13.6083 38.4541 13.1335V8.95726H39.2992V12.8161C39.2992 13.0277 39.4579 13.1335 39.6166 13.1335H47.2273C47.5976 13.1335 47.8092 12.8161 47.8092 12.4988C47.8092 12.0227 47.4918 11.8111 47.0157 11.8111H44.8495L44.6908 11.1764L45.9591 8.95605L46.7525 9.22053L45.7487 10.9648H47.0169C47.9149 10.966 48.6014 11.6537 48.6014 12.6046Z" fill="#E5F4FF"/>
<path d="M36.2337 28.6201V29.0433H34.4365V28.7259L35.599 26.9816H34.4894V26.6113H36.1808V26.9287L35.0184 28.673H36.2337V28.6201Z" fill="#E5F4FF"/>
<path d="M36.7634 27.5625L36.7105 27.2451C37.2923 26.9806 38.0846 26.9806 38.0846 27.774V28.9894H37.6614V28.7778C37.5027 28.9365 37.2911 29.0423 37.0796 29.0423C36.7622 29.0423 36.6035 28.8307 36.6035 28.5662C36.6035 28.1431 37.0267 27.8786 37.6602 27.8786V27.7728C37.6614 27.3509 37.1854 27.4038 36.7634 27.5625ZM36.9738 28.5134C36.9738 28.672 37.0796 28.7249 37.2382 28.7249C37.3969 28.7249 37.5027 28.672 37.6085 28.5662V28.1431C37.1854 28.0914 36.9738 28.303 36.9738 28.5134Z" fill="#E5F4FF"/>
<path d="M40.5144 27.5625L40.4615 27.2451C41.0433 26.9806 41.8355 26.9806 41.8355 27.774V28.9894H41.4124V28.7778C41.2537 28.9365 41.0421 29.0423 40.8305 29.0423C40.5132 29.0423 40.3545 28.8307 40.3545 28.5662C40.3545 28.1431 40.7776 27.8786 41.4112 27.8786V27.7728C41.4136 27.3509 40.9375 27.4038 40.5144 27.5625ZM40.726 28.5134C40.726 28.672 40.8317 28.7249 40.9904 28.7249C41.1491 28.7249 41.2549 28.672 41.3607 28.5662V28.1431C40.9375 28.0914 40.726 28.303 40.726 28.5134Z" fill="#E5F4FF"/>
<path d="M42.8408 28.5667C42.8408 28.6725 42.8937 28.7254 42.9995 28.7254C43.0524 28.7254 43.1581 28.7254 43.1581 28.7254V29.0428C43.0524 29.0428 42.8937 29.0957 42.8408 29.0957C42.5234 29.0957 42.4176 28.937 42.4176 28.6196V27.6158H42.2061L42.2589 27.2985H42.4176V26.8753L42.8408 26.7695V27.2985H43.211L43.1581 27.6158H42.8408V28.5667Z" fill="#E5F4FF"/>
<path d="M43.8445 29.6248H43.5801C43.633 29.4661 43.6859 29.1487 43.7388 28.8314V28.7256H44.0561V28.8314C44.0032 29.1487 43.8974 29.4661 43.8445 29.6248Z" fill="#E5F4FF"/>
<path d="M45.8004 26.9284V28.99H45.3243V26.9284H44.6367V26.5581H46.4868V26.9284H45.8004Z" fill="#E5F4FF"/>
<path d="M47.0161 27.5625L46.9632 27.2451C47.545 26.9806 48.3373 26.9806 48.3373 27.774V28.9894H47.9153V28.7778C47.7566 28.9365 47.545 29.0423 47.3335 29.0423C47.0161 29.0423 46.8574 28.8307 46.8574 28.5662C46.8574 28.1431 47.2806 27.8786 47.9141 27.8786V27.7728C47.8624 27.3509 47.3864 27.4038 47.0161 27.5625ZM47.2277 28.5134C47.2277 28.672 47.3335 28.7249 47.4922 28.7249C47.6508 28.7249 47.7566 28.672 47.8624 28.5662V28.1431C47.4393 28.0914 47.2277 28.303 47.2277 28.5134Z" fill="#E5F4FF"/>
<path d="M49.1831 27.1924L49.4476 27.5626L49.6062 27.8271L49.7649 27.5626L50.0294 27.1924H50.5054L49.9236 28.0904L50.5583 29.0413H50.0294L49.7649 28.671L49.6062 28.4065L49.4476 28.671L49.1831 29.0413H48.707L49.3418 28.0904L48.7599 27.1924H49.1831Z" fill="#E5F4FF"/>
<path d="M51.7732 27.5625L51.7203 27.2451C52.3021 26.9806 53.0943 26.9806 53.0943 27.774V28.9894H52.6712V28.7778C52.5125 28.9365 52.3009 29.0423 52.0893 29.0423C51.772 29.0423 51.6133 28.8307 51.6133 28.5662C51.6133 28.1431 52.0364 27.8786 52.67 27.8786V27.7728C52.6724 27.3509 52.1963 27.4038 51.7732 27.5625ZM51.9847 28.5134C51.9847 28.672 52.0905 28.7249 52.2492 28.7249C52.4079 28.7249 52.5137 28.672 52.6195 28.5662V28.1431C52.1963 28.0914 51.9847 28.303 51.9847 28.5134Z" fill="#E5F4FF"/>
<path d="M53.5703 29.0425V27.2453H53.9935V27.404C54.205 27.2453 54.3637 27.1924 54.5753 27.1924C54.9456 27.1924 55.1042 27.404 55.1042 27.7742V29.0425H54.6811V27.9329C54.6811 27.7213 54.5753 27.6155 54.3637 27.6155C54.205 27.6155 54.0464 27.7213 53.9406 27.7742V29.0425H53.5703Z" fill="#E5F4FF"/>
<path d="M56.213 29.0427C55.737 29.0427 55.5254 28.6196 55.5254 28.0918C55.5254 27.5629 55.7899 27.1409 56.2659 27.1409C56.4246 27.1409 56.6362 27.1938 56.742 27.3525V26.5591H57.1651V29.0439H56.742V28.8323C56.5833 28.9898 56.4246 29.0427 56.213 29.0427ZM56.3717 27.51C56.1072 27.51 55.9485 27.7216 55.9485 28.0918C55.9485 28.4621 56.1072 28.6736 56.3717 28.6736C56.5304 28.6736 56.6362 28.6207 56.6891 28.5679V27.617C56.6891 27.6158 56.5304 27.51 56.3717 27.51Z" fill="#E5F4FF"/>
<path d="M59.5432 29.0429C58.7498 29.0429 58.4336 28.5139 58.4336 27.7746C58.4336 27.0353 58.751 26.5063 59.5432 26.5063C59.8605 26.5063 60.125 26.5592 60.3883 26.7179V27.0882C60.018 26.9824 59.8064 26.9295 59.5949 26.9295C59.1188 26.9295 58.9072 27.2469 58.9072 27.8275C58.9072 28.4081 59.1188 28.7255 59.5949 28.7255C59.8064 28.7255 60.018 28.6726 60.3883 28.5668V28.9371C60.0709 28.99 59.8076 29.0429 59.5432 29.0429Z" fill="#E5F4FF"/>
<path d="M62.3972 27.1924V28.9896H61.9741V28.8309C61.7625 28.9896 61.6038 29.0425 61.3922 29.0425C61.022 29.0425 60.8633 28.8309 60.8633 28.4606V27.1924H61.2864V28.302C61.2864 28.5135 61.3922 28.6193 61.6038 28.6193C61.7625 28.6193 61.9212 28.5135 62.027 28.4606V27.1924H62.3972Z" fill="#E5F4FF"/>
<path d="M62.8203 28.9371V28.6197C63.0319 28.7255 63.2964 28.7784 63.455 28.7784C63.7195 28.7784 63.7724 28.6726 63.7724 28.5668C63.7724 28.4081 63.6137 28.3552 63.4021 28.3023C63.1377 28.1966 62.8203 28.0908 62.8203 27.7205C62.8203 27.3502 63.0848 27.1387 63.6137 27.1387C63.8253 27.1387 64.0369 27.1916 64.2485 27.2973V27.6147C64.0369 27.5089 63.8782 27.456 63.7724 27.456C63.5079 27.456 63.3493 27.5618 63.3493 27.7205C63.3493 27.8792 63.5608 27.9321 63.7724 27.985C64.0369 28.0908 64.3014 28.1966 64.3014 28.5139C64.3014 28.8842 63.984 29.0958 63.5608 29.0958C63.2964 29.0958 63.0319 29.0429 62.8203 28.9371Z" fill="#E5F4FF"/>
<path d="M65.1982 28.5667C65.1982 28.6725 65.2511 28.7254 65.3569 28.7254C65.4098 28.7254 65.5156 28.7254 65.5156 28.7254V29.0428C65.4098 29.0428 65.2511 29.0957 65.1982 29.0957C64.8808 29.0957 64.7751 28.937 64.7751 28.6196V27.6158H64.5635L64.6164 27.2985H64.7751V26.8753L65.1982 26.7695V27.2985H65.5685L65.5156 27.6158H65.1982V28.5667Z" fill="#E5F4FF"/>
<path d="M65.833 28.092C65.833 27.5631 66.0975 27.1411 66.6781 27.1411C67.2587 27.1411 67.5232 27.5643 67.5232 28.092C67.5232 28.621 67.2587 29.0429 66.6781 29.0429C66.0975 29.0429 65.833 28.6197 65.833 28.092ZM66.2562 28.092C66.2562 28.4623 66.4148 28.7267 66.6793 28.7267C66.9967 28.7267 67.1025 28.4623 67.1025 28.092C67.1025 27.7218 66.9438 27.4573 66.6793 27.4573C66.4148 27.4573 66.2562 27.7746 66.2562 28.092Z" fill="#E5F4FF"/>
<path d="M70.6429 27.7748V29.043H70.2198V27.9335C70.2198 27.7219 70.114 27.6161 69.9024 27.6161C69.7437 27.6161 69.585 27.7219 69.4792 27.7748C69.4792 27.8277 69.4792 27.8806 69.4792 27.9335V29.043H69.0561V27.9335C69.0561 27.7219 68.9503 27.6161 68.7387 27.6161C68.58 27.6161 68.4214 27.7219 68.3685 27.7748V29.043H67.9453V27.2458H68.3685V27.5103C68.5272 27.3516 68.6858 27.2458 68.9503 27.2458C69.2148 27.2458 69.3735 27.3516 69.4264 27.5632C69.6379 27.3516 69.8495 27.2458 70.0611 27.2458C70.4313 27.1929 70.6429 27.4045 70.6429 27.7748Z" fill="#E5F4FF"/>
<path d="M71.0654 28.9371V28.6197C71.277 28.7255 71.5415 28.7784 71.7002 28.7784C71.9646 28.7784 72.0175 28.6726 72.0175 28.5668C72.0175 28.4081 71.8588 28.3552 71.6473 28.3023C71.3828 28.1966 71.0654 28.0908 71.0654 27.7205C71.0654 27.3502 71.3299 27.1387 71.8588 27.1387C72.1233 27.1387 72.282 27.1916 72.4936 27.2973V27.6147C72.282 27.5089 72.1233 27.456 72.0175 27.456C71.7531 27.456 71.5944 27.5618 71.5944 27.7205C71.5944 27.8792 71.8059 27.9321 72.0175 27.985C72.282 28.0908 72.5465 28.1966 72.5465 28.5139C72.5465 28.8842 72.2291 29.0958 71.8059 29.0958C71.5415 29.0958 71.277 29.0429 71.0654 28.9371Z" fill="#E5F4FF"/>
<path d="M74.2902 28.4093L74.0786 28.9912H73.6025L74.5005 26.5063H74.8708L75.7688 28.9912H75.2927L75.0812 28.4093H74.2902ZM74.3431 28.092H75.0307L74.6604 27.0353L74.3431 28.092Z" fill="#E5F4FF"/>
<path d="M77.7263 27.1924V28.9896H77.3032V28.8309C77.0916 28.9896 76.9329 29.0425 76.7213 29.0425C76.3511 29.0425 76.1924 28.8309 76.1924 28.4606V27.1924H76.6155V28.302C76.6155 28.5135 76.7213 28.6193 76.9329 28.6193C77.0916 28.6193 77.2503 28.5135 77.3561 28.4606V27.1924H77.7263Z" fill="#E5F4FF"/>
<path d="M78.7295 28.5667C78.7295 28.6725 78.7824 28.7254 78.8881 28.7254C78.941 28.7254 79.0468 28.7254 79.0468 28.7254V29.0428C78.941 29.0428 78.7824 29.0957 78.7295 29.0957C78.4121 29.0957 78.3063 28.937 78.3063 28.6196V27.6158H78.0947L78.1476 27.2985H78.3063V26.8753L78.7295 26.7695V27.2985H79.0997L79.0468 27.6158H78.7295V28.5667Z" fill="#E5F4FF"/>
<path d="M81.0027 27.7747V29.0429H80.5795V27.9334C80.5795 27.7218 80.4737 27.616 80.3151 27.616C80.1564 27.616 79.9977 27.7218 79.8919 27.7747V29.0429H79.4688V26.5581H79.8919V27.3515C80.0506 27.1928 80.2622 27.1399 80.4209 27.1399C80.7382 27.1399 81.0027 27.3515 81.0027 27.7747Z" fill="#E5F4FF"/>
<path d="M81.4258 28.092C81.4258 27.5631 81.6902 27.1411 82.2709 27.1411C82.8515 27.1411 83.116 27.5643 83.116 28.092C83.116 28.621 82.8515 29.0429 82.2709 29.0429C81.6902 29.0429 81.4258 28.6197 81.4258 28.092ZM81.7948 28.092C81.7948 28.4623 81.9535 28.7267 82.218 28.7267C82.5354 28.7267 82.6411 28.4623 82.6411 28.092C82.6411 27.7218 82.4825 27.4573 82.218 27.4573C81.9535 27.4573 81.7948 27.7746 81.7948 28.092Z" fill="#E5F4FF"/>
<path d="M83.5391 29.0423V27.2451H83.9622V27.6154C84.1209 27.3509 84.3325 27.2451 84.5969 27.2451V27.5625C84.3325 27.5096 84.0151 27.7212 83.9622 27.8799V29.0423H83.5391Z" fill="#E5F4FF"/>
<path d="M84.8613 26.8224C84.8613 26.7166 84.9671 26.6108 85.0729 26.6108C85.1787 26.6108 85.2845 26.7166 85.2845 26.8224C85.2845 26.9282 85.1787 27.034 85.0729 27.034C84.9671 27.034 84.8613 26.9282 84.8613 26.8224ZM85.3362 29.0428H84.913V27.2985H85.3362V29.0428Z" fill="#E5F4FF"/>
<path d="M86.4472 28.5667C86.4472 28.6725 86.5001 28.7254 86.6059 28.7254C86.6588 28.7254 86.7646 28.7254 86.7646 28.7254V29.0428C86.6588 29.0428 86.5001 29.0957 86.4472 29.0957C86.1299 29.0957 86.0241 28.937 86.0241 28.6196V27.6158H85.8125L85.8654 27.2985H86.0241V26.8753L86.4472 26.7695V27.2985H86.8175L86.7646 27.6158H86.4472V28.5667Z" fill="#E5F4FF"/>
<path d="M88.8258 27.1924L87.9278 29.6772H87.5047L87.6634 29.1483L86.9229 27.1924H87.3989L87.8221 28.6193L88.2452 27.1924H88.8258Z" fill="#E5F4FF"/>
<path d="M40.0396 29.0428H39.5107L38.9289 28.1977V29.0428H38.5586V26.6108H38.9817V27.9849L39.5107 27.1915H39.9867L39.352 28.0895L40.0396 29.0428Z" fill="#E5F4FF"/>
</g>
<defs>
<filter id="filter0_d_1172_15902" x="-2.38419e-07" y="-1.19209e-07" width="91.6777" height="40" filterUnits="userSpaceOnUse" color-interpolation-filters="sRGB">
<feFlood flood-opacity="0" result="BackgroundImageFix"/>
<feColorMatrix in="SourceAlpha" type="matrix" values="0 0 0 0 0 0 0 0 0 0 0 0 0 0 0 0 0 0 127 0" result="hardAlpha"/>
<feOffset dy="1"/>
<feGaussianBlur stdDeviation="1"/>
<feComposite in2="hardAlpha" operator="out"/>
<feColorMatrix type="matrix" values="0 0 0 0 0.0392157 0 0 0 0 0.0496732 0 0 0 0 0.0705882 0 0 0 0.05 0"/>
<feBlend mode="normal" in2="BackgroundImageFix" result="effect1_dropShadow_1172_15902"/>
<feBlend mode="normal" in="SourceGraphic" in2="effect1_dropShadow_1172_15902" result="shape"/>
</filter>
<linearGradient id="paint0_linear_1172_15902" x1="21.0289" y1="-2.82023" x2="-4.84649" y2="20.0447" gradientUnits="userSpaceOnUse">
<stop stop-color="#76B05C"/>
<stop offset="0.46" stop-color="#6EB7B2"/>
<stop offset="1" stop-color="#4191CD"/>
</linearGradient>
<linearGradient id="paint1_linear_1172_15902" x1="20.1199" y1="-3.85" x2="-5.75518" y2="19.012" gradientUnits="userSpaceOnUse">
<stop stop-color="#76B05C"/>
<stop offset="0.46" stop-color="#6EB7B2"/>
<stop offset="1" stop-color="#4191CD"/>
</linearGradient>
<linearGradient id="paint2_linear_1172_15902" x1="19.1617" y1="-4.93232" x2="-6.7164" y2="17.9297" gradientUnits="userSpaceOnUse">
<stop stop-color="#76B05C"/>
<stop offset="0.46" stop-color="#6EB7B2"/>
<stop offset="1" stop-color="#4191CD"/>
</linearGradient>
<linearGradient id="paint3_linear_1172_15902" x1="18.1902" y1="-6.03151" x2="-7.68517" y2="16.8305" gradientUnits="userSpaceOnUse">
<stop stop-color="#76B05C"/>
<stop offset="0.46" stop-color="#6EB7B2"/>
<stop offset="1" stop-color="#4191CD"/>
</linearGradient>
<linearGradient id="paint4_linear_1172_15902" x1="29.8638" y1="7.18152" x2="3.98552" y2="30.0435" gradientUnits="userSpaceOnUse">
<stop stop-color="#76B05C"/>
<stop offset="0.46" stop-color="#6EB7B2"/>
<stop offset="1" stop-color="#4191CD"/>
</linearGradient>
<linearGradient id="paint5_linear_1172_15902" x1="30.7582" y1="8.1927" x2="4.87995" y2="31.0547" gradientUnits="userSpaceOnUse">
<stop stop-color="#76B05C"/>
<stop offset="0.46" stop-color="#6EB7B2"/>
<stop offset="1" stop-color="#4191CD"/>
</linearGradient>
<linearGradient id="paint6_linear_1172_15902" x1="31.5592" y1="9.09816" x2="5.6809" y2="31.963" gradientUnits="userSpaceOnUse">
<stop stop-color="#76B05C"/>
<stop offset="0.46" stop-color="#6EB7B2"/>
<stop offset="1" stop-color="#4191CD"/>
</linearGradient>
<linearGradient id="paint7_linear_1172_15902" x1="32.3122" y1="9.95196" x2="6.4339" y2="32.8169" gradientUnits="userSpaceOnUse">
<stop stop-color="#76B05C"/>
<stop offset="0.46" stop-color="#6EB7B2"/>
<stop offset="1" stop-color="#4191CD"/>
</linearGradient>
<linearGradient id="paint8_linear_1172_15902" x1="33.1976" y1="10.9561" x2="7.32248" y2="33.8181" gradientUnits="userSpaceOnUse">
<stop stop-color="#76B05C"/>
<stop offset="0.46" stop-color="#6EB7B2"/>
<stop offset="1" stop-color="#4191CD"/>
</linearGradient>
<linearGradient id="paint9_linear_1172_15902" x1="34.0647" y1="11.9355" x2="8.18647" y2="34.8004" gradientUnits="userSpaceOnUse">
<stop stop-color="#76B05C"/>
<stop offset="0.46" stop-color="#6EB7B2"/>
<stop offset="1" stop-color="#4191CD"/>
</linearGradient>
<linearGradient id="paint10_linear_1172_15902" x1="34.979" y1="12.9709" x2="9.10392" y2="35.8358" gradientUnits="userSpaceOnUse">
<stop stop-color="#76B05C"/>
<stop offset="0.46" stop-color="#6EB7B2"/>
<stop offset="1" stop-color="#4191CD"/>
</linearGradient>
<linearGradient id="paint11_linear_1172_15902" x1="35.8269" y1="13.9298" x2="9.94916" y2="36.7919" gradientUnits="userSpaceOnUse">
<stop stop-color="#76B05C"/>
<stop offset="0.46" stop-color="#6EB7B2"/>
<stop offset="1" stop-color="#4191CD"/>
</linearGradient>
<linearGradient id="paint12_linear_1172_15902" x1="22.0415" y1="-1.67441" x2="-3.83674" y2="21.1905" gradientUnits="userSpaceOnUse">
<stop stop-color="#76B05C"/>
<stop offset="0.46" stop-color="#6EB7B2"/>
<stop offset="1" stop-color="#4191CD"/>
</linearGradient>
<linearGradient id="paint13_linear_1172_15902" x1="22.9372" y1="-0.657365" x2="-2.93783" y2="22.2047" gradientUnits="userSpaceOnUse">
<stop stop-color="#76B05C"/>
<stop offset="0.46" stop-color="#6EB7B2"/>
<stop offset="1" stop-color="#4191CD"/>
</linearGradient>
<linearGradient id="paint14_linear_1172_15902" x1="23.8368" y1="0.360758" x2="-2.03828" y2="23.2228" gradientUnits="userSpaceOnUse">
<stop stop-color="#76B05C"/>
<stop offset="0.46" stop-color="#6EB7B2"/>
<stop offset="1" stop-color="#4191CD"/>
</linearGradient>
<linearGradient id="paint15_linear_1172_15902" x1="24.7897" y1="1.43828" x2="-1.0854" y2="24.3032" gradientUnits="userSpaceOnUse">
<stop stop-color="#76B05C"/>
<stop offset="0.46" stop-color="#6EB7B2"/>
<stop offset="1" stop-color="#4191CD"/>
</linearGradient>
<linearGradient id="paint16_linear_1172_15902" x1="25.5869" y1="2.33955" x2="-0.288711" y2="25.2044" gradientUnits="userSpaceOnUse">
<stop stop-color="#76B05C"/>
<stop offset="0.46" stop-color="#6EB7B2"/>
<stop offset="1" stop-color="#4191CD"/>
</linearGradient>
<linearGradient id="paint17_linear_1172_15902" x1="26.5137" y1="3.38861" x2="0.638669" y2="26.2536" gradientUnits="userSpaceOnUse">
<stop stop-color="#76B05C"/>
<stop offset="0.46" stop-color="#6EB7B2"/>
<stop offset="1" stop-color="#4191CD"/>
</linearGradient>
<linearGradient id="paint18_linear_1172_15902" x1="27.369" y1="4.35584" x2="1.49072" y2="27.2207" gradientUnits="userSpaceOnUse">
<stop stop-color="#76B05C"/>
<stop offset="0.46" stop-color="#6EB7B2"/>
<stop offset="1" stop-color="#4191CD"/>
</linearGradient>
<linearGradient id="paint19_linear_1172_15902" x1="28.2751" y1="5.38101" x2="2.39687" y2="28.2459" gradientUnits="userSpaceOnUse">
<stop stop-color="#76B05C"/>
<stop offset="0.46" stop-color="#6EB7B2"/>
<stop offset="1" stop-color="#4191CD"/>
</linearGradient>
<linearGradient id="paint20_linear_1172_15902" x1="29.0895" y1="6.30507" x2="3.21448" y2="29.1699" gradientUnits="userSpaceOnUse">
<stop stop-color="#76B05C"/>
<stop offset="0.46" stop-color="#6EB7B2"/>
<stop offset="1" stop-color="#4191CD"/>
</linearGradient>
<linearGradient id="paint21_linear_1172_15902" x1="36.7279" y1="14.9505" x2="10.8502" y2="37.8126" gradientUnits="userSpaceOnUse">
<stop stop-color="#76B05C"/>
<stop offset="0.46" stop-color="#6EB7B2"/>
<stop offset="1" stop-color="#4191CD"/>
</linearGradient>
<linearGradient id="paint22_linear_1172_15902" x1="37.5619" y1="15.8934" x2="11.6837" y2="38.7555" gradientUnits="userSpaceOnUse">
<stop stop-color="#76B05C"/>
<stop offset="0.46" stop-color="#6EB7B2"/>
<stop offset="1" stop-color="#4191CD"/>
</linearGradient>
<linearGradient id="paint23_linear_1172_15902" x1="38.4419" y1="16.8877" x2="12.5636" y2="39.7498" gradientUnits="userSpaceOnUse">
<stop stop-color="#76B05C"/>
<stop offset="0.46" stop-color="#6EB7B2"/>
<stop offset="1" stop-color="#4191CD"/>
</linearGradient>
</defs>
</svg>
